<svg xmlns="http://www.w3.org/2000/svg" xml:space="preserve" style="fill-rule:evenodd;clip-rule:evenodd;stroke-linejoin:round;stroke-miterlimit:2" viewBox="0 0 1361 1480"><path d="M0-9.097c-.075.076-.127.117-.165.171-.385.538-.186 1.185-.266 1.78-.014.098.096.244.181.325.405.382.652.855.446 1.443-.199.571.56.763.327 1.305.222.216.437.441.668.645.133.117.311.174.434.302.397.411.472 1.105.021 1.391-.693.44-.349 1.44-.962 1.853.041.051.1.094.121.155.307.891.273 1.134-.282 1.553-.287.215-.697.158-.92.547-.177.31-.475.361-.776.417-.183.034-.179.168-.029.286.226.178.246.438.214.73-.031.271.004.562-.351.583-.557.034-.786.611-1.144.955-.134.129-.119.522-.096.785.06.696-.224 1.162-.688 1.57-.375.329-.693.713-1.195.842-.231.06.016.736-.48.68-.373-.042-.502.349-.736.546-.247.208-.449.484-.696.691-.193.162-.151.372-.149.564.004.588-.334.882-.754.986-.29.071-.356.189-.451.482-.185.568-.585.801-1.146.724-.466-.064-.97-.171-1.341.339-.334-.149-.51.373-.755.287-.202-.07-.35-.37-.494-.592-.103-.158-.177-.208-.26-.073-.217.353-.525.279-.828.262-.859-.048-1.721-.069-2.578-.139-.402-.033-.62-.58-1.12-.487-.416.078-.856-.023-1.286-.044-.43-.022-.86-.049-1.29-.063-.224-.007-.268-.163-.339-.369-.193-.558-.393-1.099-.278-1.726.069-.373-.152-.459-.425-.468-.307-.01-.615-.053-.921-.038-.29.014-.439-.186-.585-.4-.231-.339-.482-.592-.911-.525-.316.049-.372-.19-.394-.507-.018-.255-.38-.487-.509-.359-.352.352-.673.654-1.036.045-.023-.037-.114-.073-.121-.064-.654.97-1.129-.545-1.739-.135-.322-.532-.827-.455-1.3-.483-.369-.021-.741-.084-1.105-.045-.496.054-.811-.209-1.053-.629-.198-.345-.343-.198-.534.012-.069.077-.273.132-.321.082-.595-.619-1.346-.495-2.046-.488-.431.004-.722-.275-1.085-.398-.263.449-.655.275-1.004.266-.422-.011-.851-.126-1.169.354-.042.063-.292.055-.348-.018-.425-.541-.861-.66-1.401-.17-.117.106-.339.065-.514.083-.757.075-1.56-.382-2.27.295-.069.066-.238-.003-.361-.009-.246-.012-.491-.031-.737-.035-.606-.011-1.263-.184-1.804.029-.525.206-1.078.454-1.57.775-.602.394-1.123.43-1.63-.106-.108-.114-.152-.11-.271.041-.242.306-.506.342-.758.01-.469-.618-1.041-1.049-1.773-1.135-.215-.025-.399-.134-.365-.327.162-.931-.391-1.474-.934-1.792-.52-.303-.828-.748-1.125-1.226-.111-.178.022-.566-.339-.558-.232.004-.49-.003-.689.107-.209.115-.383.438-.437-.095-.02-.204.041-.42.017-.623-.014-.108-.123-.274-.203-.284-.484-.06-.973-.075-1.458-.123-.192-.018-1.79-.079-1.884.035-.42.511-.731.337-1.026-.13-.502.061-.758-.664-1.295-.5-.054.017-.151.016-.174-.021-.23-.373-.202-.927-.601-1.176-.281-.177-.778-.107-.59-.749-.439-.761-.696-1.614-1.001-2.447-.158-.432-.407-.809-.288-1.312.09-.384-.235-.629-.27-.902-.074-.585-.612-1.042-.344-1.71.048-.118.072-.352.016-.4-.396-.345-.323-.954-.614-1.348.537-.368.404-.99.38-1.499-.048-.992.243-1.73.979-2.278.132-.098.272-.319.274-.483.012-1.106.938-1.359 1.441-2.001.052-.065.236.006.359.009.121.002.304.057.353-.01.473-.653 1.046-.88 1.782-.737.266.052.44-.357.783-.4.296-.037.549-.493.823.067.036.073.336.105.49-.104.375-.508.834-.79 1.437-.62.278.078.484-.088.623-.316.297-.485.891-.368 1.216-.807.05-.067.314.067.478.11.135.035.123.464.386.167.218-.248.473-.456.682-.711.229-.281.482-.376.811-.328.303.045.616.013.919.059.331.052.552-.214.814-.301.49-.163.928-.723 1.5-.419.492.262.663-.57 1.168-.391.306.109.693.191 1.016-.21.283-.353.83.153 1.155-.385.142-.234.428-.113.61.123.058.076.216.168.241.143.186-.188.366-.383.638-.294.506.167.91-.132 1.345-.346.781-.385.786-.358 1.524-.354.229.001.471.141.693-.108.213-.241.441-.505.709-.632.255-.121.595.138.854-.177.058-.071.232-.141.254-.113.534.692 1.266.294 1.898.404.663.115 1.348.086 2.024.12.439-.533.997-.358 1.526-.339.553.019 1.106.094 1.658.07.576-.026 1.222.368 1.71-.321l1.84.084c.561-.703 1.26-.255 1.898-.302.155-.011.39.072.465.202.382.671.952.834 1.579.707.407-.082.632.524.883.341.374-.271.622-.395.909.048.035.054.081.134.127.138.489.037.979.062 1.469.09.301.613.855.508 1.302.446.55-.077.778.577 1.304.529.477-.044.966.06 1.445.13.052.008.119.231.107.346-.029.265.088.405.28.426.427.045.859.05 1.289.072.395.884 1.445.06 1.892.902.071.134.464.049.708.064.123.008.288-.042.361.029.271.267.479.632.776.845.229.164.636-.11.828.252.369.697.951.795 1.576.714.456-.058.666.274.876.595.092.141.07.375.116.561.014.06.076.148.119.149.803.023.891 1.078 1.505 1.332.685.282 1.005.833 1.189 1.586.082.33.819.023.64.723.226.316.445.637.679.946.238.315.492.614.734.926.105.136.197.285.293.426" style="fill:#231f20;fill-rule:nonzero" transform="translate(1146.872 757.975)scale(4.16667)"/><path d="M0 104.316c.241-.16.514-.383.828-.537.385-.189.354-.542.439-.877.116-.454.301-.138.432.045.09.125.139.038.272.011.674-.133.261-.899.653-1.12.324-.182.854.225 1.152-.207.092-.134.233-.257.26-.407.073-.406.126-.821.131-1.237.004-.368.299-.461.507-.646.221-.196.828.154.74-.471.27-.216.64-.38.781-.664.135-.272.128-.54.559-.448.486.104.981.151 1.467.257.187.041.28.206.233.414s.072.346.277.378c.303.048.418.194.38.482-.047.352-.078.707-.112 1.061-.005.054-.008.141.024.164.459.328.095.803.288 1.145.261.466.405.943.531 1.441.08.319 1.029.481 1.047.216.028-.419.515-.473.503-.848-.011-.394.179-.752-.137-1.189-.331-.457-.228-1.11-.641-1.581a.9.9 0 0 1 .202-.175c.042-.023.139-.007.178.028.501.442 1.102.836.917 1.621-.021.088.046.232.118.312.454.508.555 1.139.81 1.719.23.523.367 1.097.813 1.56.452.468.516.847.692 1.738.075.382.223.756.353 1.13.004.012.219.012.246-.034.054-.094.003-.294.069-.328.531-.274.732-.843 1.162-1.2.271-.224.569-.418.855-.625-.091-.476.61-.533.515-1.012.36-.169.451-.477.478-.852.01-.139.183-.265.301-.378.163-.159.504-.304.49-.447-.067-.686.435-.93.877-1.183.426-.244.504-.602.5-1.027-.002-.258.08-.447.315-.569.387-.199.682-.49.586-.962-.103-.501.485-.612.491-1.032.574-.631 1.043-1.31.983-2.24-.025-.382.517-.417.482-.855-.025-.321-.098-.743.332-.921.051-.021.111-.064.125-.111.117-.378-.1-.881.281-1.146.424-.295.324-.75.31-1.124-.023-.578.652-.764.571-1.386-.066-.513.121-1.039.195-1.558.549-.135-.078-.588.135-.728.297-.196.281-.469.345-.749.033-.147.193-.258.288-.39.175-.246.232-.284.012-.6-.256-.368-.18-.692-.045-.989.083-.183.35-.252.376-.531.132-1.418.309-2.83.428-4.25.061-.736.021-.742.209-.885l.143-.103c.304-.215-.016-.262-.129-.326-.424-.24-.429-.234-.115-.478.092-.073.196-.133.284-.21.082-.073.213-.157.211-.243-.002-.159-.087-.322-.133-.485-.025-.087-.07-.184-.053-.262.029-.133.385-.085.201-.348-.106-.153-.215-.313-.352-.438-.288-.262-.172-.549-.149-.833.018-.209.146-.284.358-.272.112.007.31.004.323-.042.137-.482.407-.967-.057-1.472a4 4 0 0 1-.349-.44c-.118-.175.026-.464.252-.535.565-.178.712-.398.473-.923-.102-.225-.211-.403-.18-.656.109-.882.231-1.765.268-2.656.021-.501.318-.973-.069-1.544-.319-.47.071-1.021.008-1.548-.519-.368.034-.52.092-.779.058-.258.188-.552-.107-.822-.578-.529-.58-.545-.087-.897q.143-.102.285-.208.067-.051.129-.105c-.194-.245-.401-.482-.577-.738-.058-.085-.09-.256-.042-.325.239-.35.758-.631.143-1.137-.03-.393.165-.822-.276-1.148.063-.273-.065-.592.187-.822.09-.081.406-.093.156-.353-.087-.089-.147-.204-.237-.29-.267-.254-.331-.47.047-.631.078-.58.188-1.156.218-1.742.009-.194-.272-.419-.271-.619.001-.285-.244-.42-.295-.63-.02-.082.266-.191.364-.324.059-.079.079-.285.024-.334-.332-.297-.321-.635-.249-.989.06-.298.062-.582-.215-.816.123-.22.264-.432.365-.663.176-.401-.135-.677-.378-.947-.32-.355-.296-.598.067-.877.146-.112.139-.411.195-.627.014-.054.026-.152 0-.168-.546-.344-.121-.883-.378-1.306-.411-.678-.537-1.412-.365-2.164.079-.345.113-.7-.242-.981.078-.072.179-.13.23-.219.08-.14.219-.395.174-.437-.391-.364-.347-.782-.226-1.164.129-.403-.35-.606-.299-.984.044-.327.229-.674-.05-1.022-.059-.073-.128-.24-.103-.261.639-.513.323-1.313.494-1.964.018-.066-.12-.253-.192-.26-.4-.044-.539-.231-.456-.597.026-.114.035-.235.037-.354.01-.524.322-1.08.03-1.553-.313-.509-.031-.92-.109-1.369-.026-.152-.192-.29-.294-.434.712-.22.068-.672.033-.956-.047-.373-.352-.741-.207-1.155.165-.471-.414-.833-.255-1.337.139-.44.124-.937.161-1.41.009-.105-.009-.27-.078-.32-.502-.361.129-.954-.385-1.305-.128-.087-.085-.168.069-.246.083-.042.132-.142.197-.217-.536-.341-.006-.924-.395-1.293-.362-.344.155-.816-.27-1.156-.076-.061-.106-.206-.117-.313-.035-.347.252-.728-.026-1.022-.282-.298-.089-.687-.403-.968-.208-.185-.014-.58-.323-.785-.024-.016-.029-.118-.019-.121.72-.247-.121-.633.018-.992.185-.477.171-1.046.189-1.581.012-.391.265-.77-.084-1.193-.312-.379.01-.796-.04-1.198-.012-.102-.163-.19-.204-.298-.14-.372-.364-.758-.357-1.121.007-.382-.202-.658-.283-.982-.256-1.037-.236-1.03-1.016-1.718-.319-.282-.582-.626-.867-.944a.3.3 0 0 1-.08-.153c-.027-.283.208-.599-.09-.835-.167-.132-.533-.068-.52-.378.012-.272-.093-.464-.271-.633-.457-.433-.373-1.126-.884-1.543-.097-.079-.059-.323-.076-.491a2.94 2.94 0 0 0-.53-1.435c-.326-.456-.696-.884-1.065-1.347.194-.131.4-.248.577-.396.327-.275.443-1.094.202-1.424-.22-.303-.492-.574-.689-.887-.15-.24-.195-.535-.329-.786-.114-.212-.278-.378-.565-.415-.614-.078-1.225-.2-1.838-.295-.238-.037-.27-.63-.662-.254-.257.246-.669-.119-.852.02-.383.291-.763.209-1.19.152-.534-.072-1.104-.368-1.599-.122-.552.274-1.095-.149-1.583-.028-.449.11-.89.143-1.338.201-.264.035-.507.216-.829.139-.302-.073-.616-.152-.916-.142-.215.007-.406.212-.623.229-.285.021-.577-.141-.857.083-.153.123-.431.094-.641.163-1.192.389-1.208.468-2.007.244C.665.47.054.972-.661.775c-.308.518-.911-.036-1.323.272-.288.216-.73.242-1.105.349-.107.031-.308.027-.315.071-.079.541-.416.584-.894.457-.297-.079-.651-.2-.9-.115-.266.092-.489.274-.808.222-.339.541-1.11-.141-1.45.396-.081-.067-.16-.137-.244-.2-.093-.07-.21-.203-.283-.189-.384.074-.758.186-1.135.284-.052.558-.424.625-.876.443-.524-.21-.866.28-1.345.186-.219.324-.672.13-.941.351-.325.267-.704-.035-1.044.01-.387.05-.833.084-1.118.293-.27.197-.611.015-.814.227-.251.261-.56.081-.844.106-.216.019-.413.177-.607.289-.205.117-.198.121-.653-.109-.105-.053-.248-.118-.34-.09-.162.05-.308.156-.444.258-.343.257-.676.542-1.031-.05-.079-.132-.148-.118-.27 0-.124.122-.378.187-.405.32-.066.32-.116.532-.549.47-.275-.04-.451.259-.801.241-.4-.02-.584.555-1.056.511-.368-.034-.735-.142-1.103-.165-.156-.011-.305.135-.469.164-.337.061-.643.211-.962.281s-.725-.18-.997.164c-.41-.073-.843-.084-1.223-.237-.3-.122-.6-.382-.777-.651-.106-.162.033-.435-.32-.529-.538-.141-.646-.714-1.01-1.037.103-.464-.481-.844-.262-1.326.095-.208-.104-.332-.216-.466-.101-.121-.081-.167.07-.251.301-.169.372-.408.126-.72-.058-.074-.118-.25-.1-.259.579-.329.383-.946.428-1.436.057-.622.175-1.139.785-1.428.377-.178.005-.697.359-.917.244-.152.451-.357.674-.539-.107-.58.28-.851.693-1.092.249-.147.233-.396.225-.617-.019-.472.215-.757.597-.969.245-.136.452-.281.772-.336.379-.066.846-.336.99-.655.235-.52.696-.731 1.07-1.065.12-.108.291-.254.285-.386-.028-.529.302-.567.717-.708.414-.142.753-.485 1.24-.525.047-.568.414-.525.882-.469a.69.69 0 0 0 .762-.559c.058-.284.285-.349.455-.487.263-.212.718-.029.936-.357.217-.325.627-.233.94-.351.259-.098.544-.144.791-.261.212-.1.364-.328.582-.391.269-.078.6-.013.788-.267.298-.404.901-.185 1.24-.548.274-.295.676-.472.984-.741.523-.458 1.322-.45 1.804-.962.602.209.776-.526 1.239-.494.524.037.703-.378 1.07-.525.096-.039.247-.018.349.029.076.035.114.157.169.24-.52.157-.26.732-.514 1.009-.233.254-.541.456-.852.623-.322.172-.349.46-.325.748.05.594-.496.841-.701 1.286-.043.095-.576-.093-.56.185.037.631-.627.938-.575 1.562.014.168-.195.196-.397.213-.436.035-.787.223-.81.726-.01.203-.527.102-.284.47.212.322.465.613.886.547.386-.06.757-.185 1.133-.288.161-.044.318-.16.475-.147.427.034.854.12 1.281.185.321-.396.766-.225 1.175-.141.279.058.448-.158.645-.168.368-.019.641-.306.961-.27.391.043.586-.432.988-.218.413.22.635-.186.984-.219.449-.043.849-.228 1.353-.172.352.038.708-.303 1.086-.407.211-.058.471.02.709.041q.45.04.899.086c.354-.495 1.082.121 1.474-.378.073-.094.44.017.634-.16.164-.149.359-.288.57-.354.066-.02.281.333.343.312.375-.123.561-.662 1.075-.468.423.16.65-.288.987-.194.492.139.831-.023 1.129-.321.254-.254.352-.044.529.129.102.099.385.173.471.111.475-.339 1.113-.249 1.591-.506.294-.158.544-.188.845-.108.38.101.723.1.987-.199.68.245.896-.768 1.608-.457.601.263 1.109-.294 1.725-.086.164.056.295-.111.308-.322.007-.096.1-.252.173-.258.288-.024.631.088.862-.019.221-.103.238-.451.461-.659.443-.41 1.056-.419 1.559-.673.218-.11.59.192.849-.058-.097-.675.849-.581.877-1.177.01-.191.17-.331.375-.228.469.235.766-.214 1.174-.168.224.025.313-.064.386-.243a1.4 1.4 0 0 1 .263-.407c.227-.239.252-.602.596-.787.37-.198.707-.012 1.055.019.281.025.417-.027.499-.316.055-.192.304-.315.449-.483.118-.136.181-.13.269.031.057.105.148.255.239.271q1.096.202 2.199.348c.059.008.131-.16.197-.247.093-.122.169-.339.282-.352 1.08-.119 1.082-.106 1.764-1.007.102-.134.298-.195.418-.319.126-.13.167-.117.271.037.293.432.683.447 1.111.282.258-.099.571-.116.785-.266.294-.204.582-.025.865-.05.161-.014.305-.144.451-.23.386-.23.385-.232.968.117.618.37.619.37.968.117q.714-.519 1.43-1.035c.701-.503.952-.486 1.904.107.098.061.227.142.321.127.202-.032.387-.161.588-.17.12-.005.181.397.354.235.328-.308.742.003 1.013-.119.337-.151.618-.231 1.004-.186.262.03.529-.183.804-.193.299-.011.623.047.913.149.345.121.508-.176.781-.193.19.37.367.279.666.117.217-.116.608.068.852-.028.235-.091.373-.234.535.083.026.049.077.087.117.13.303-.533.943.006 1.302-.298.274-.234.574-.039.856-.068.218-.022.408-.21.625-.226.133-.01.326.139.434.263.111.129.176.198.26.097.289-.351.741.005 1.002-.125.337-.167.621-.259 1.005-.173.356.081.525-.233.743-.399.285-.219.697-.18.841-.029.593.623 1.344.544 2.039.66.467.078.78.265 1.051.643.278.388.527.862 1.135.818.056-.004.144.008.172.044.495.636.982 1.277 1.471 1.916-.086.394.128.505.495.573.132.025.218.294.359.412.255.213-.047.666.333.745.366.076.489.34.696.554.317.329.518.676.384 1.128-.047.162-.101.398-.017.514.64.887.429 1.999 1.015 2.887.201.304-.065.306-.174.282-.372-.084-.557.166-.771.337-.225.179-.109.753-.697.533-.037-.014-.16.248-.252.375-.223.307-.388.703-.694.894-.506.314-.688.874-1.145 1.229-.346.268-.8.149-1.109.426-.26.234-.55.446-.86.615-.129.071-.343.006-.518.004-.451-.005-.459-.007-.533.446-.037.226.001.491-.344.488-.461-.004-.816.363-1.362.16-.51-.19-.54-.099-.656.462-.086.419-.095.462-.579.374-.36-.066-.598.046-.796.257-.145.153-.179.48-.34.529-.259.079-.589.036-.876-.032-.944-.225-1.748-.024-2.463.519-.338.257-.441-.297-.481-.254-.298.314-.799.135-1.104.413-.166.151-.417.384-.579.341-.986-.265-1.355.574-2.003.901-.013.006.052.18.107.26.237.35.136.662-.022.974-.061.121-.437.125-.197.338.532.472.469 1.228 1.001 1.688.082.071.184.247.153.299-.296.494.315.874.251 1.338-.055.395-.185.803.219 1.171.052.047-.053.319-.146.44-.103.134-.284.206-.418.32-.38.32-.398.733-.069 1.217.134.199.407.451.365.596-.182.638.293.998.655 1.479-.247.16-.515.292-.723.486-.101.093-.174.379-.111.445.522.547.203.802-.232 1.109-.549.386-.734 1.072-1.185 1.559-.194.21-.091.682-.123 1.035.623.681.092 1.361.129 2.041.007.123-.242.226-.312.369-.066.136-.121.343-.058.466.108.211.27.371.24.643-.253 2.299-.484 4.602-.737 6.901-.017.149-.133.309-.253.408-.296.244-.247.493.007.744.136.134.146.188-.016.259-.242.104-.421.36-.275.551.314.414.45.729-.066 1.001.074.254.217.514.209.759-.019.594-.115 1.18-.167 1.772-.015.167-.006.343.03.511.242 1.14.229 1.133-.283 2.036-.065.115-.025.379.072.482.251.27.102.357-.089.518-.1.084-.149.326-.095.453.091.21.254.366.267.637.029.623-.464 1.247.116 1.872-.052.645-.098 1.292-.158 1.936q-.092.975-.204 1.947c-.026.235-.066.461.151.659.246.225-.043.253-.12.362-.062.088-.173.196-.153.277.067.271.278.551.252.797s-.269.456-.418.682c.495.741.17 1.477.143 2.215.628.938.042 1.83.087 2.746.028.564-.366 1.141.176 1.689l-.237 2.473c-.433.209-.381.647-.506 1.023-.157.471.506.701.297 1.171-.137.307-.093.699-.13 1.053-.043.413-.189.841-.102 1.235.098.447.374.865.208 1.335-.146.414.122.771.224 1.158.083.315.036.812-.172.991-.423.364-.4.631-.038 1.023.058.063.047.291-.015.333-.767.521-.384 1.405-.569 2.106-.018.068.199.19.21.29.028.281.006.564.003.846-.689.283-.234.707-.119 1.142.085.323-.011.642.226.999.16.241.125.693-.25.911-.312.181-.149.536-.234.8.574.54.184 1.122.193 1.685.005.293-.055.538-.325.754-.257.204.332.416.186.728-.091.195.005.478-.256.601-.214.1-.103.212-.038.382.191.495.208.531-.173 1.06-.265.367-.148.786-.247 1.169-.01.037.052.114.098.146.726.508.539 1.183.425 1.802-.101.546.157 1.198-.431 1.63-.187.138.173.373.304.534.276.339.39.628-.033.87-.26.148-.164.414-.202.632-.05.281-.062.533.139.839.204.311-.437.401-.336.816.068.279-.043.587-.074.882s-.041.595-.098.884c-.053.265.113.435.214.65.047.102-.217.294-.226.458-.007.144.213.313.209.459-.004.142-.153.28-.259.401-.249.286-.331.643-.097.947.229.298.109.56.161.837.094.5-.448.632-.497 1.033-.05.407-.093.816-.174 1.216-.018.089-.2.125-.269.215-.063.083-.119.208-.103.308.044.275.515.598-.063.785.592.743.114 1.47.103 2.199-.01.713-.218 1.415-.18 2.125.028.507-.63.511-.533 1.034.059.314.081.739-.352.903-.085.514-.159 1.03-.26 1.54-.031.156-.097.366-.218.425-.624.302-.704.852-.727 1.462-.018.475-.142.942-.128 1.417.015.508-.594.668-.532 1.208.048.41-.054.829-.122 1.236-.014.09-.181.138-.247.227-.217.288-.209.291-.074.601.055.126.337.235.056.394-.097.054-.241.149-.236.227.025.423-.201.717-.429 1.016.568.411-.156.503-.153.784.003.296-.036.595-.096.882-.019.092-.178.139-.251.225-.212.248-.331.553-.563.803-.196.212-.053.632-.381.909-.21.177-.157.645-.22.983-.041.221-.053.424-.223.625-.238.281-.273.75-.54.983-.366.319-.708.577-.655 1.133.02.212-.632 1.14-.908 1.334-.252.177-.406.366-.426.696-.031.51.024 1.073-.509 1.387-.071.459-.124.923-.224 1.374-.032.143-.158.094-.252-.066-.079-.134-.359-.326-.344-.121.036.5-.687.515-.537 1.019-.27.217-.698.382-.775.661-.132.477-.551.571-.84.827-.373.331-.64.672-.925 1.522-.109.323-.425.373-.61.582-.432-.141-.642.194-.944.346-.243.122-.548.139-.787.266-.348.185-.604.539-1.087.449-.152.359-.359.594-.829.633-.226.019-.514.233-.553.592-.034.328-.333.248-.567.185-.36-.096-.577-.044-.612.367-.015.176-.2.243-.414.191-.214-.053-.329-.17-.298-.37s-.028-.374-.212-.429c-.23-.068-.53-.153-.708-.067-.369.178-.678.464-1.011.706l-1.308.289c-.36-.107-.587-.041-.606.37-.004.079-.154.208-.234.2a8 8 0 0 1-1.101-.178c-.275-.065-.44.07-.655.163-.239.103-.226-.129-.235-.293-.007-.109-.035-.293-.091-.312-.224-.076-.261.089-.275.262-.027.349-.291.315-.528.244-.216-.065-.287-.377-.138-.59.063-.091.212-.125.269-.218.031-.049-.051-.243-.085-.246-.438-.042-.827-.144-1.114-.542-.041-.058-.319.028-.483.063-.097.02-.26.112-.266.102-.373-.586-1.292-.369-1.593-1.134-.13-.331-.651-.38-.952-.185-.386.251-.618.199-.908-.17-.131-.168-.411-.221-.582-.371-.141-.122-.206-.23-.399-.085-.451.339-.859.76-1.506.777-.134.003-.18.306-.412.043-.185-.211-.49-.32-.701-.516-.223-.209-.398-.439-.333-.793.049-.265.242-.585-.036-.843-.296-.275-.068-.711-.423-.949-.393-.264-.23-.859-.571-1.041-.308-.164-.508-.209-.474-.599.062-.703-.171-1.41-.663-2.092-.158-.219-.3-.47-.12-.628.242-.211.412-.336.085-.64-.281-.261-.427-.556-.351-.962.083-.449.204-.985.024-1.375-.215-.467-.139-.464.269-.433.193.015.336-.089.317-.312-.019-.226.142-.442-.062-.682-.106-.124-.161-.31-.185-.472-.069-.461.285-.903-.026-1.378-.346-.529-.049-1.032-.04-1.544.009-.475.03-.964.155-1.412.151-.543-.104-1.02-.245-1.509-.125-.434-.363-.845-.581-1.331" style="fill:#231f20;fill-rule:nonzero" transform="translate(934.856 952.695)scale(4.16667)"/><path d="M0 28.688c-.389-.455-.735-1.028-1.591-.924-.536.066-1.073 0-1.395-.517-.082-.132-.299-.26-.466-.277-.607-.06-1.218-.073-1.828-.103-.266.341-.698.24-1.057.341-.461.13-.974.234-1.374.548-.218.17-.453.017-.687-.139-.366-.241-.233-.807-.531-.875-.506-.117-.659-.27-.602-.709.047-.349.006-.708.003-1.063-.498-.309-.256-.756-.292-1.154-.051-.567.323-1.189-.284-1.688.018-.598.039-1.197.05-1.795.001-.048-.05-.114-.098-.143-.44-.266-.312-.671-.226-.987.118-.431-.372-.593-.397-.959-.035-.51.358-1.072-.209-1.53-.005-.591.009-1.182-.03-1.772-.01-.15-.228-.283-.28-.441-.049-.151-.08-.415.008-.472.386-.245.134-.392.027-.667-.144-.372-.116-.852.016-1.236.187-.541-.457-.832-.374-1.323.07-.415.064-.841.07-1.263.004-.348.254-.335.535-.356.146-.01.362-.029.172-.314-.352-.53-.38-.606.003-1.085.254-.317-.122-.382-.105-.53.021-.189.253-.35.344-.542.038-.082-.017-.246-.094-.315-.406-.361-.345-.734-.086-1.116.067-.098.27-.175.263-.251-.072-.742.433-1.539-.283-2.22.098-.341-.226-.933.634-.837.063.007.216-.265.234-.418.051-.418.044-.842.077-1.263.027-.352-.003-.733.141-1.047.163-.355.493-.648.744-.973.033-.043.024-.112.037-.168.091-.388-.12-.816.308-1.167.375-.307.234-.8.193-1.189-.056-.527.266-.875.498-1.276.437-.753.442-.752.47-1.275.026-.482.079-.964.063-1.445-.011-.37.281-.524.534-.693.136-.091.405-.029.536-.123a.6.6 0 0 0 .212-.449c0-.215-.344-.332-.621-.237-.059.021-.105.075-.15.119-.145.139-.41.205-.408-.004.005-.664.126-1.329-.655-1.762-.045-.025-.095-.107-.082-.146.245-.736-.406-1.093-.855-1.508-.278-.257-.31-.518-.252-.814.107-.545-.148-.906-.684-1.147-.162-.073-.457-.173-.451-.239.068-.668-.87-.85-.882-1.524-.006-.333-.707-.517-.673-1.034.005-.084-.436-.167-.627-.3-.211-.148-.372-.353-.555-.532s-.361-.365-.554-.536c-.036-.032-.133-.003-.198-.017-.381-.083-.847.13-1.145-.19-.377-.404-.872-.21-1.391-.31-.355.089-.874-.227-1.227.226l-1.37.059c-.146.466-1.207.033-1.024.823-.236.073-.637.102-.679.228-.207.616-.793.91-1.244 1.32-.085.077-.201.2-.184.283.003.013.001.024.004.038a.5.5 0 0 1-.211-.131c-.342-.375-.791-.194-1.26-.286-.322.082-.793-.209-1.114.21l-1.242.056c-.133.431-1.094.032-.929.763-.214.068-.578.094-.616.211-.187.571-.72.843-1.129 1.223-.077.072-.182.185-.167.262.111.548-.328.797-.692 1.068-.346.259-.468.56-.569.961-.093.368-.313.789-.702 1.052-.305.206-.487.439-.476.826.014.449-.509.574-.792.841-.217.204-.456.349-.072.595-.132.308-.355.506-.74.529-.42.026-.328.203-.104.372.148.111.163.172-.014.241-.544.213-.574.788-.953 1.131-.181.165-.239.451-.415.672-.157.198-.192.483-.449.655-.241.16-.525.332-.422.665.125.403-.436.494-.422.847.011.278-.076.565-.024.834.075.396-.464.483-.431.848.032.349.008.699-.567.581-.154.443-.616.741-.642 1.258-.019.362.176.79-.261 1.078-.374.246.008.741-.43 1.018-.379.241.055.912-.562 1.117-.023.007-.008.105-.011.161-.011.223-.07.454-.021.666.061.271-.604.289-.231.621.312.277-.128.314-.158.469-.064.323-.156.674-.077.981.123.473-.55.572-.452 1.019.103.468-.062.871-.552 1.121-.335.17-.008.314.011.476.054.48-.007.969-.023 1.455-.534.292-.322.787-.371 1.203-.052.443-.033.893-.083 1.336-.019.169-.186.262-.4.222a.33.33 0 0 0-.176.01c-.158.064-.191.158-.079.228.396.247.305.632.203.909-.171.462.584.618.345 1.06-.05.092.02.284-.04.316-.455.247-.415.653-.395 1.028.037.688-.349 1.42.258 2.053-.095.361.16.797-.244 1.088-.198.142-.101.224.004.363.341.448.219.858-.258 1.116-.403.219-.371.649-.668.924-.168.155-.129.509-.153.776-.035.389-.044.78-.063 1.17-.019.415.024.847-.37 1.161.455.286.26.701.253 1.069-.012.613-.062 1.225-.084 1.838-.005.158-.031.4.063.462.511.336-.042 1.031.577 1.306-.026.557-.017 1.117-.09 1.668-.045.332.258.485.322.722.085.312.001.66-.01.993.613.334.062 1.094.651 1.437.195.557.399 1.107.893 1.526.074.064.095.187.122.287.338 1.242.394 1.228.929 1.849.235.273.798.071.794.53-.004.399.358.558.584.798.151.162.083.31.098.467s-.072.315.102.464c.268.23.478.521.758.736.283.217.015.87.718.734.248.464.336 1.051 1.095 1.121.05.004.114.292.097.44-.028.244.051.415.239.589.176.163.331.322.61.288.329.48 1.347.342 1.292 1.189-.004.07.247.183.396.229.167.051.443-.012.518.079.453.551.81.307 1.169-.063.191-.196.399-.35.536-.621a1.5 1.5 0 0 1 .367-.452c.166.288.401.525.891.57.055.005.125.315.107.475-.031.264.056.449.264.637.195.176.366.349.673.312.363.519 1.486.372 1.427 1.286-.005.076.272.199.436.248.185.056.49-.012.572.086.5.596.894.333 1.289-.066.21-.212.44-.378.59-.671.235-.459.703-.779 1.29-.986.494-.175.939-.362 1.487-.27.265.044.553.079.809.034.302-.054.572-.257.872-.291.308-.035.625-.023.919.227.313.266.373.224.674.089.116-.052.211-.232.301-.224.548.052 1.055.097 1.157-.571.006-.042.361-.088.526-.045.16.042.282.198.421.303.338-.437.839-.243 1.291-.255.445-.011.859-.297.936-.726.053-.299.064-.566.374-.77.418-.275.739-.57 1.374-.586.542-.014 1.086-.473 1.207-1.007.083-.364.178-.665.483-.908-.021-.795.686-.29 1.006-.455.315-.164.687-.344.7-.788.01-.335-.114-.703.266-.992.836-.634.767-.676 1.143-1.913.072-.237.469-.379.06-.653-.009-.006.122-.224.147-.217.403.106.589-.294.871-.307.431-.02.616-.125.586-.507-.01-.12-.045-.285.025-.353.269-.264.539-.55.876-.728.484-.255.197-.507.08-.777.45-.361.879-.747 1.36-1.072.217-.147.667.046.691-.424.016-.335.56-.492.446-.916-.075-.274.143-.448.368-.574.453-.255.562-.629.525-1.071-.025-.29.08-.661-.084-.854" style="fill:#231f20;fill-rule:nonzero" transform="translate(945.893 1130.29)scale(4.16667)"/><path d="M0 16.375c-.172-.248-.16-.626-.228-.946.478-.479.123-1.03.112-1.542-.005-.224-.296-.435-.319-.667s.11-.487.198-.723c.19-.505.21-1.01.139-1.544-.135-1.014-.221-2.035-.321-3.054-.039-.403-.223-.902-.055-1.19.247-.426.086-.781.103-1.166s-.144-.741.097-1.167c.167-.293.009-.79-.053-1.189C-.522 1.945-.369.638-.98-.529c.547-.401-.093-.669-.09-.988.003-.394-.367-.547-.4-.869-.029-.282.475-.5.063-.869-.216-.193-.259-.569-.423-.836-.311-.502-.03-1.208-.566-1.63-.033-.026-.036-.157-.003-.189.302-.301.332-.59-.064-.807-.609-.334-.775-.872-.782-1.515-.004-.397-.29-.124-.433-.138-.153-.014-.191-.047-.191-.242.001-.404-.203-.621-.626-.554-.304.048-.549-.046-.613-.343-.057-.265-.069-.514-.329-.688-.281-.189-.575-.389-.785-.647-.193-.238-.218-.628-.432-.829-.304-.286-.589-.533-.549-.992-.417.198-.747-.208-1.131-.162-.484.057-.723-.264-.962-.574-.071-.092.016-.328-.058-.391-.77-.641-1.557-1.26-2.339-1.885-.509.174-.49-.171-.533-.506-.012-.097-.195-.171-.448-.376-.003-.001-.176-.108-.36-.133-.955-.127-1.879-.553-2.875-.281-.27.073-.516-.119-.738-.14-.641-.06-1.265-.367-1.934-.157-.49.153-.941.048-1.265-.363-.376-.478-.985-.212-1.447-.476-.175-.099-.506-.033-.789.158.001-.012-.003-.021-.002-.034.014-.162-.107-.353-.205-.506-.202-.315-.645-.495-.524-.995.01-.043-.187-.19-.293-.197-.312-.018-.639-.132-.917.167-.296.317-.59.189-.804-.121-.116-.166-.198-.2-.283-.021-.184.388-.319.803-.535 1.171-.233.399-.838.236-1.097.666-.133.221-.378.281-.663.323-.945.137-1.805.635-2.294 1.225.008.266-.108.443-.258.596-.043-.05-.12-.075-.275-.041-.252.054-.493.043-.741.233-.237.181-.624.161-.943.241-.341.085-1.242.551-1.35.689-.523.667-.521.698-.771.698-.505 0-.658.407-.858.739q-.01.02-.013.047c-.267.203-.544.4-.625.782-.035.166-.196.325-.335.447-.525.464-1.029.924-1.709 1.22-.615.267-.941 1.143-1.842.891-.049-.014-.208.165-.224.269-.089.596-.656.778-.988 1.159-.064.074-.248.096-.356.067-.464-.123-.736.158-1.023.433-.24.23-.469.592-.743.634-.354.054-.616.385-.836.367-.591-.051-.98.147-1.402.526-.308.277-.765.548-1.15.541-.494-.009-.844.22-1.248.376-.401.154-.907.211-1.175.493-.397.418-.886.021-1.274.323-.336.26-.762.403-1.149.597-.571-.287-.978.215-1.434.364-.419.138-.782.397-1.262.312-.068-.012-.241.16-.241.247 0 .451-.234.589-.625.488-.392-.101-.575.268-.857.336-.371.09-.785-.003-1.181-.017-.303.611-.981.146-1.392.488-.286.238-.499.723-.959.558-.539-.194-.755.501-1.256.363-.165-.046-.412-.015-.544.085-.369.279-.651.748-1.055.887-.466.161-1.03.009-1.542.069-.293.035-.586.193-.847.348-.392.233-.769.445-1.253.334-.258-.059-.472.05-.72.172-.55.269-1.085.688-1.776.503-.035-.01-.106.075-.144.127-.237.323-.362.102-.572-.065-.31-.246-.473-.165-.691.245-.028.053.008.181-.016.19-.863.311-1.597.983-2.605.899-.31-.026-.68-.203-.943.069-.322.334-.865.195-1.141.586-.403-.778-.804.202-1.291.006-.414-.166-.843.495-1.439.315-.215-.064-.452.455-.84.324-.275.341-.631.371-1.049.364-.426-.008-.738.496-1.253.338-.12-.037-.306.22-.48.259-.603.137-1.125.606-1.815.419-.144-.04-.355.089-.51.182-.319.194-.5.688-.983.517-.467-.166-.664.461-1.047.341-.574-.179-.902.435-1.453.355-.516-.076-.941.318-1.354.544-.459.251-1.059-.101-1.431.444-.082.121-.509.068-.754.003-.556-.146-.975.238-1.454.304-.51.072-.355.451-.512.677-.108.154-.156.102-.292-.029-.17-.163-.415-.248-.543-.319-.438.073-.774-.134-1.062.155a1.9 1.9 0 0 0-.498.79c-.143.438-.721.014-1.052.24a.7.7 0 0 0-.147.134c-.269.349-.746.482-.851 1.028-.092.475-.841.215-1.047.683-.049.113-.166.217-.166.325.002.414-.608.536-.463 1.006-.411.221-.433.602-.461 1.009-.011.158-.199.309-.319.453-.165.196-.495.39-.485.569.029.508-.344.809-.468 1.215-.114.37-.111.796-.064 1.186.035.293.288.56.323.853.047.39-.049.795-.031 1.191.007.17.104.395.236.49.512.368.52.863.464 1.41-.017.171.082.508.137.51.943.029.498.716.567 1.154l.561 1.345c.706.032.956.661 1.302 1.091.459.57 1.239.688 1.634 1.325.158.254.643.104.785.471.533.04.584.492.805.844.188.3.122.369-.071.589-.259.297-.176.473.221.699.107.06.243.072.338.144.322.245.355.668.552.961.178.265.712.252.891.637.077.165.087.359.125.541s.01.431.12.534c.282.265.159.398-.069.582-.082.066-.153.265-.112.338.272.488.389 1.043.786 1.488.398.446.932.64 1.402.935.219.138.588.089.912-.129.495-.335.547-.277.739.306.068.205.127.371.37.348.251-.024.486.076.758-.073.594-.326 1.178-.742 1.924-.622.312-.586 1.004-.104 1.386-.494s1.075.092 1.387-.494c.443.046.923.007 1.317.172.238.099.303.242.589.036.338-.242.785-.45 1.188-.458.611-.01 1.154-.011 1.578-.545.239-.3.683-.244 1.008-.483.239-.175.775-.183 1.035.24.107.174.154.165.293.034.128-.121.327-.24.492-.236q1.295.026 2.586.126c.294.022.5-.062.696-.264.029-.03.207.028.263.092.267.299.53.331.826.048.192-.183.446-.543.58-.504.7.204 1.167-.55 1.847-.376.315.081.781.186.964.029.317-.269.712-.261 1.016-.481.143-.103.256-.287.428-.03.165.247.478.37.651.165.283-.334.762-.17 1.005-.5.115-.157.175-.153.29-.037.509.512 1.018.446 1.51-.036.632.329 1.049-.377 1.647-.335.567.041 1.173.262 1.718-.087.558-.358 1.147-.059 1.715-.128.113-.014.207-.151.323-.184.664-.19 1.403-.222 1.829-.897.389.133.568-.255.855-.339.423-.124.931.243 1.32-.125.419-.397.885-.171 1.313-.14.627.044 1.154-.029 1.581-.544.098-.117.34-.152.518-.158.331-.012.663.033.995.04.315.006.627.103.917-.181.263-.258.697-.203 1.004-.495.188-.181.646.174.915-.126.422-.473.909-.728 1.557-.571.727.177 1.298-.492 2.015-.374.238-.241.487-.461.829-.176.21.174.084.45-.413.939-.161.158-.458.266-.134.563.238.219.417.52.809.342.057-.026.096-.09.149-.13.351-.265.887-.217 1.133-.65.302-.532.921-.016 1.232-.368.339-.384.752-.262 1.1-.184.47.104.633-.433 1.055-.375.393.053.796.081 1.191.057.369-.022.602-.491 1.051-.341.296.099.456-.22.677-.278.284-.076.702-.087.909.073.342.264.466.404.552-.15.039-.247.467-.437.576-.291.268.359.602.446 1.021.447.597.002 1.195.096 1.789.068.387-.019.533.279.797.415.397-.551.968-.317 1.459-.27.636.061 1.141-.062 1.571-.558.283-.326.579-.185.808.116.235.311.305-.043.425-.114.381-.227.775.007 1.152-.065.422-.081.739-.409 1.251-.353 1.033.112 1.039.058 2.511-.597.495.141.737-.519 1.228-.389.103-.162.25-.238.41-.292.857.268 1.737.497 2.626.613.697.091 1.415.079 2.118.178.832-.518 1.784-.486 2.703-.572.498-.046.845-.219 1.203-.595.279-.294.778-.435 1.202-.504.171-.029.37.322.681.089.248-.186.637-.214.835-.431.598-.656 1.14-1.365 1.684-2.069.063-.081-.023-.263-.001-.391.068-.393.076-.392.434-.548.175-.075.41-.102.514-.234.405-.508.957-.926.905-1.714-.018-.268.432-.227.647-.345.13-.072.044-.469.159-.656.169-.275.136-.42-.048-.686" style="fill:#231f20;fill-rule:nonzero" transform="translate(1243.078 82.407)scale(4.16667)"/><path d="M0-80.211c.186.037.193.551.481.215.158-.185.305-.386.478-.546.072-.066.243-.104.295-.05.434.45.957.815.869 1.702-.057.579.002 1.174.009 1.762.453.392.145.982.253 1.456.126.551-.422.713-.382 1.227.034.436.134.952-.117 1.328-.168.251-.224.351-.012.589.09.102.094.353.092.536a63 63 0 0 1-.05 2.387c-.013.295.082.478.232.683.164.223.113.473-.076.671-.042.044-.107.087-.114.139-.072.494-.088 1.008-.417 1.391-.028.033-.005.129-.008.195-.012.246.412.291.213.578-.148.214-.249.392-.245.684.009.596-.018 1.193-.03 1.79-.012.596-.079 1.202-.02 1.787.058.575-.327.964-.348 1.424-.096 2.119-.124 4.242-.141 6.364-.003.419.403.718.303 1.238-.074.379-.018.793-.04 1.189-.034.629.101 1.291-.345 1.838-.101.124-.082.612.028.734.513.563.173.92-.175 1.251-.257.245-.237.548-.26.875-.029.413.007.775.304 1.032-.333.235-.408.631-.33 1.022.117.586-.501.88-.357 1.42.16.601-.283.933-.38 1.418-.061.309-.475.565-.014.875-.031.046-.074.087-.091.14-.043.137-.339.153-.116.423.31.376.285.394.188 1.158-.049.383.031.842-.118 1.14-.146.292-.272.536-.254.876.022.405-.015.765-.323 1.047-.082.076-.029.375-.035.572-.006.199.027.412-.021.593-.064.237-.495.328-.11.731.214.223-.241.314-.233.561.004.126-.001.266.042.373.046.113.165.181.212.294.044.105.08.272.042.364-.124.297-.482.565-.022.874-.308.208-.272.658-.456.951-.065.102-.18.182-.203.293-.129.611.23 1.333-.3 1.853-.036.584-.102 1.17-.093 1.753.003.27.239.552.207.799-.027.208-.311.352-.441.563-.196.318-.208.768-.69.843-.256.039-.077.582-.127.892.322.248.323.629.306 1.038-.014.335-.023.629-.268.876-.091.092-.07.356-.093.544-.098.811.2 1.709-.376 2.414-.008.398-.02.796-.023 1.193-.004.393.021.779-.303 1.059-.062.054-.044.396.032.513.393.601.362 1.193-.018 1.76-.206.307-.065.632-.124.94.438.299.177.578-.016.868-.027.041-.006.129-.007.195-.037 1.791-.055 3.582-.124 5.371-.014.368.264.5.268.807-.599.457-.044.86.026 1.292.07.428-.143.886.178 1.302.281.365.065.879.088 1.324.003.059-.16.183-.248.187-.242.013-.412.07-.409.43.003.328.065.718-.056.969-.132.27-.266.514-.357.822-.088.3-.383.144-.585.145-.675.006-.675-.003-1.71-.716-.365-.251-.531-.128-.588.436-.006.066-.003.133-.005.199-.001.067.019.156-.008.194-.055.077-.136.126-.207.187-.143-.321-.429-.317-.658-.448-.063-.036-.078-.218-.096-.338-.036-.245.113-.558-.12-.726-.493-.355-.461-1.132-.881-1.559-.357-.362-.343-1.074-.787-1.388-.237-.881-.651-1.658-.968-2.491-.123-.324.096-.894-.062-1.138-.385-.596-.255-1.226-.261-1.855-.005-.464.016-.929.025-1.393-.416-.377-.3-.924-.296-1.433.003-.464.03-.929.017-1.392-.003-.1-.126-.208-.21-.286-.118-.11-.09-.162.025-.294.105-.119.241-.405.202-.47-.461-.759-.286-1.623-.242-2.439.022-.42-.224-.651-.258-1 .364-.249.267-.68.276-1.059.036-1.458.059-2.917.095-4.376.006-.269.018-.53-.191-.696-.138-.109-.12-.16-.019-.29.339-.437.388-.92.01-1.346-.296-.335-.434-.692-.398-1.2.02-.284-.5-.57.002-.878l.069-1.973c-.6-.718-.201-1.617-.269-2.429-.038-.458.042-.93.012-1.39-.04-.62.27-1.333-.281-1.832.08-.491-.125-1.022.251-1.485.221-.273.205-.71-.011-1.062-.054-.088-.144-.261-.132-.273.559-.587.235-1.368.304-2.051.073-.722.036-1.457.061-2.186.009-.263-.518-.372-.122-.737.265-.245.121-.613.146-.923.033-.396.023-.795.031-1.193l.02-.995.02-.994c.456-.351.334-.914.354-1.42q.026-.697.027-1.393c.001-.186.066-.384-.098-.545-.34-.334-.234-.627.044-.967.172-.209.093-.634.367-.813a.9.9 0 0 0-.106-.269c-.237-.304-.2-.592.06-.817.394-.341.516-.773.5-1.355-.015-.552-.157-1.186.327-1.609-.038-.048-.073-.098-.113-.143-.231-.262-.284-.54-.022-.819.185-.195.252-.425.124-.675-.097-.19-.362-.325-.061-.567.404-.325.57-.771.489-1.35.329-.235.316-.619.364-1.02.049-.416.385-.711.359-1.225-.017-.332.39-.573.379-.99.333-.188.216-.701.472-.963.1-.102.136-.336.148-.515.028-.396.033-.795.027-1.193-.004-.275.022-.515.226-.688.088-.075.153-.192.239-.272.343-.321.498-.801.736-1.212.261-.45.146-.884.168-1.319.023-.447.049-.796.524-.699.189-.295.424-.493.534-.927.183-.722.784-1.476 1.136-1.805.518-.485.82-.848.836-1.322.017-.502.179-.583.538-.729.322-.131.702-.565.781-.948.093-.451.349-.633.537-.931.26-.411.76-.607.838-1.158.097-.677.703-.406.935-.877.215-.436.603-.746.9-1.093" style="fill:#231f20;fill-rule:nonzero" transform="translate(808.168 639.563)scale(4.16667)"/><path d="M0-16.18c-.094-.501-.739-.864-.543-1.462.145-.444.083-.927.115-1.392.031-.455.458-.401.864-.405.288-.003.631.015.852-.093 1.493-.726 1.484-.739 2.32-.718.872.023 1.529-.321 1.609-1.018.066-.573.263-.837 1.05-.797.141.007.322-.18.449-.299.493-.461 1.113-.603 1.873-.505.4.052.917-.075 1.202.076.703.37 1.102-.723 1.773-.147.477.409 1.142.196 1.719.245.54.046.634.253.637.602.001.127.231.371.26.363 1.028-.29 1.553.664 2.476.576.778-.074.976.464 1.418.744-.372.606.93.843.554 1.45.141.044.286.128.424.122.235-.012.337-.482.65-.182.447.429 1.281.35 1.682.866.24.308.254.589.174.866-.213.735.387 1.304.763 1.849.267.386.217.857.685 1.214.261.199.056.721.148 1.085.162.645.411 1.277 1.004 1.782.391.332.951.631.058.995.28.295.519.563.593.976.054.304.557.557.495 1.005-.118.848-.127 1.706-.189 2.559-.033.453-.469.387-.871.405-.115.005-.217.172-.325.265 1.137.556-.208 1.705.927 2.268.013.006-.03.123-.082.152-1.097.616-.067 1.698-.836 2.309-.387.307-.321.688-.659.972-.31.262-.41.681-.746.908-.464.315-.309.696-.434 1.048-.07.196-.377.336-.508.529-.287.424-1.132.106-1.26.451-.177.478-.526.787-.979 1.083-.386.254-.757.522-1.138.78-.885.602-2.172.983-3.43 1.014-.202.005-.532-.071-.587-.005-.37.44-1.102.306-1.536.597-.451.302-.844.355-1.274-.009-.126-.106-.301-.244-.461-.249-.479-.016-.98-.163-1.417.18-.588.461-.619-.392-1.139-.309-.467.076-.926-.039-1.399.252-.691.424-1.56.031-2.351.082-.623.041-.798-.718-1.532-.547-.541-.428-.958-.942-1.836-1.09-.308-.051-.747-.454-.726-.675.042-.461-.673-.71-.553-.985.306-.702-.686-1.134-.514-1.699.252-.828-.461-1.416-.706-2.111-.092-.26-.374-.478-.392-.813-.015-.268-.604-.377-.544-.763.07-.457-.563-.599-.81-.92-1.267.157-.695-.944-1.393-1.196-.092-.033-.145-.355-.062-.412.973-.659.61-1.553.755-2.356 1.288-.458.283-1.563 1.12-2.233.608-.488.422-.994-.074-1.863-.089-.155-.135-.214.113-.338.134-.068.306-.291.292-.3-.843-.575-.296-1.305-.396-1.959-.056-.369.319-.525.59-.743.265-.214.677-.447.698-.688.053-.589.131-1.046 1.116-1.015.074.002.161-.242.244-.374" style="fill:#231f20;fill-rule:nonzero" transform="translate(1254.546 1158.655)scale(4.16667)"/><path d="M0-33.245c-.148.092-.365.065-.538.128-.169.06-.102.135.006.284.34.471.371.945-.138 1.347-.559.441-.704 1.231-1.349 1.599l.353.441c-.643.4-.305 1.377-1.065 1.748-.417.203.181.493.129.534-.497.379-.32.935-.448 1.41-.109.404-.347.797-.614 1.125-.183.226-.271.432-.253.698.032.489-.07.927-.533 1.169-.395.206-.26.72-.607.939-.281.177-.193.473-.192.718.001.418-.616.535-.459 1.008s-.411.601-.47 1.006c-.056.393-.381.679-.799.712-.234.019-.443.109-.411.29.116.65-.349.93-.707 1.308-.207.217-.325.519-.471.79-.115.216-.154.55-.328.644-.565.306-.576.993-1.039 1.357-.364.287-.689.624-1.046.921-.029.024-.253-.097-.248-.133.056-.469.046-.901-.339-1.259-.063-.058.02-.256.006-.387-.031-.301.186-.45.329-.664.129-.193.109-.49.143-.742.034-.251-.03-.517.227-.71.328-.245.299-.519.037-.819-.295-.338-.204-.718-.027-1.075.082-.166.322-.327.299-.458-.144-.829.305-1.342.96-1.793-.663-.446-.877-.994-.783-1.728.062-.487.283-1.061-.269-1.458.031-.562-.202-1.188.419-1.609.068-.046.088-.286.031-.372-.174-.267-.404-.465-.359-.858.089-.789.068-1.591.163-2.378.025-.205.319-.337.426-.607.201-.509.628-.929.822-1.438.182-.479.413-.762.924-.842.171-.026.358-.16.473-.298.333-.4.748-.502 1.228-.4.506.109.72-.11.737-.598.001-.047.086-.11.143-.126.033-.01.116.051.129.094.036.118.035.248.071.366.074.238.416.453.575.34.818-.581 1.819-.779 2.666-1.283.356-.212.595-.205.82.109.113.158.181.192.285.053.175-.236.407-.292.694-.252.182.025.383.092.548-.106.204-.242.389-.328.448.118.07.53-.189.882-.599 1.137M62.499 3.738c-.068-.556.316-1.193-.295-1.653.023-.594-.03-1.204.089-1.778.13-.629-.535-1.033-.346-1.653.074-.246.036-.527.049-.792l.061-1.194c.023-.464-.022-.945.088-1.387.119-.475-.423-.637-.371-1.054.04-.325.163-.795.003-.959-.524-.533-.235-1.122-.252-1.681-.013-.441-.062-1.153-.18-1.374-.058-.107-.138-.226-.136-.339.006-.464-.025-.943.079-1.389.131-.567-.252-.973-.316-1.453-.079-.583.034-1.19.063-1.787.027-.531-.056-1.098.107-1.582.224-.668-.414-1.057-.355-1.656.092-.924.141-1.855.136-2.783-.002-.377.413-.519.371-.785-.036-.22-.313-.415-.509-.592-.242-.22-.126-.485-.138-.735-.025-.501.231-1.052-.299-1.469-.057-.045.027-.387.137-.506.469-.504.4-1.077.167-1.608-.106-.244-.21-.446-.192-.717.046-.662.071-1.325.105-1.988.029-.597.007-1.202.104-1.788.101-.611-.112-1.129-.341-1.643-.181-.406-.408-.761-.34-1.254.09-.656-.003-1.343.138-1.982.141-.64-.169-1.15-.382-1.632-.19-.43-.38-.799-.292-1.266.053-.282-.01-.51-.238-.699-.375-.311-.577-.684-.476-1.202.046-.239.12-.521-.132-.729-.308-.256-.203-.699-.496-1.007-.335-.353-.912-.61-.807-1.263-.611-.444-.26-1.085-.346-1.637-.007-.044-.203-.117-.261-.085-.186.101-.38.482-.493-.034-.066-.302.131-.642-.166-.921-.28-.263-.149-.743-.513-.992-.263-.18-.47-.61-.712-.617-.648-.021-.303-.756-.61-.8-.619-.088-.886-.551-1.178-.947-.328-.442-.914-.426-1.238-.878-.244-.342-.464-.918-1.026-.785-.565.132-.677-.642-1.214-.487-.274.079-.526-.041-.664-.302-.231-.436-.761-.454-1.058-.767-.334-.351-.739-.172-1.102-.267-.175-.046-.379-.109-.495-.233-.368-.395-1.089-.005-1.338-.624-.147.115-.31.338-.436.318-.155-.024-.263-.347-.418-.371-.52-.08-1.052-.084-1.579-.118-.395-.655-1.069-.331-1.614-.463-.177-.043-.346-.128-.511-.209-.661-.323-.661-.31-1.765.047-.118.038-.341.072-.366.025-.454-.82-1.595-.061-2.031-.892l-2.785-.139c-.738.763-1.628.222-2.442.257-.858.037-1.723-.071-2.586-.111-.51-.023-1.046-.151-1.446.325l-1.66-.083c-.182.002-.37-.033-.547-.009-.034-.496.145-.947-.008-1.483-.138-.484-.101-.979-.27-1.456-.127-.36.181-.584-.023-.953-.136-.247-.153-.516-.135-.803.026-.409-.167-.896-.363-1.333-.184-.41-.093-.751-.102-1.119-.007-.26-.003-.517-.004-.776-.665-.303-.415-.926-.855-1.361-.424-.419-.811-.938-.921-1.522-.069-.368-.384-.471-.711-.403-.172.036-.202.01-.259-.145-.211-.589-.757-.799-1.31-.967-.147-.044-.26.062-.404-.189-.24-.414-.589-.79-.673-1.252-.048-.261-.252-.39-.541-.422-.719-.08-1.438-.175-2.078-.706-.188-.157-.346-.12-.463.012-.314.357-.88.177-1.324.254-.119.021-.327-.191-.503-.259-.161-.063-.46-.147-.484-.1-.194.382-.921.16-.995.704-.045.326-.303.569-.796.166-.044-.035-.24.018-.293.084-.165.203-.258.467-.451.64-.139.124-.435.102-.582.223-.088.072-.067.296-.015.445.056.164.066.229-.105.206-.49-.065-.499.343-.699.562s-.217.619-.709.551c-.148-.02-.205.115-.063.208.432.286.504.542.218.819-.178.173-.067.396-.009.621.023.092-.055.191-.1.279-.093.177-.541-.071-.488.227.042.232.112.441-.054.609-.073.075-.195.216-.163.255.445.554-.242.759-.15 1.211.075.369.179.805.039 1.083-.17.337-.214.665-.162 1.05-.502.231-.14.792-.236 1.18-.071.286.086.598-.414.573-.062-.003-.1.266-.101.418-.001.563.011.647-.483.826-.313.114-.334.19-.02.39.348.221.21.688.675.859.059.022.072.217.121.329.07.163.067.153-.228.384-.452.353-.738.759-.772 1.412-.031.605-.288 1.159-.128 1.824.012.049-.012.1-.028.146-.116.331-.568.493-.374.984.156.398-.185.583-.348.828-.183.276.22.67-.086.919-.058.047-.096.116-.14.177-.175.082-.267.291-.448.336-.304.075-.672-.185-.929.125-.265.32-.779.116-.995.51-.245.448-.84.308-1.13.653-.377.448-.817.632-1.389.49-.283-.07-.526.004-.692.246-.313.456-.895.445-1.306.754-.211.157-.629.021-.949.056-.174.019-.492.144-.486.179.105.646-.475.458-.741.652-.612.447-1.032 1.242-1.985 1.02-.246.222-.468.485-.747.654-.212.129-.309-.515-.709-.134-.3.288-.832.27-1.129.659-.098.129-.323.216-.494.224-.386.017-.833-.127-.795.53.004.07-.167.179-.276.22-.401.151-.811.282-1.217.421-.151.051-.206.386-.426.189-.188-.169-.481-.442-.443-.602.15-.639-.249-.972-.583-1.376-.107-.129-.145-.352-.139-.529.012-.351.03-.626-.455-.676-.216-.022-.398-.286-.616-.404-.377-.205-.818-.32-1.143-.584-.408-.33-.741-.759-1.072-1.174-.105-.131-.136-.351-.136-.53.001-.444.034-.876-.545-.319a.52.52 0 0 1-.228-.19c-.198-.463-.404-.655-.73-.586-.177.038-.337.148-.507.219-.681.282-1.358.575-2.047.834-.172.064-.412-.041-.573.034-.3.139-.139.468-.202.709-.031.118-.1.329-.138.326-.868-.065-.658 1.023-1.3 1.213-.121.035-.254.315-.242.472.049.667-.293.791-.842.677-.249-.051-.342.095-.421.292-.067.17-.118.387-.25.485-.46.339-.743.738-.635 1.334.072.396-.208.584-.449.808-.182.169-.5.298-.412.61.151.54-.371.778-.5 1.201-.124.403-.47.719-.441 1.218.03.527.029 1.077-.093 1.584-.076.311-.569.55-.027.873-.063.309.146.708-.178.918-.364.236-.22.721-.59.963-.237.156-.206.55-.449.805-.18.189-.165.618-.139.932.032.402-.406.492-.447.812-.015.117-.001.309.07.354.331.206.222.582.369.855.196.361.199.391-.018.555-.389.296-.597.636-.588 1.157.01.613.09 1.269-.395 1.79-.008.009.255.258.242.274-.194.239-.394.484-.634.675-.2.16-.127.355-.162.539-.132.677.227 1.475-.5 2.004.094.623-.385 1.311.212 1.878-.116.258-.362.545-.315.769.075.35.454.622.316 1.055-.037.118-.04.277-.121.346-.211.18-.325.367-.336.663-.06 1.525-.148 3.05-.218 4.575a.57.57 0 0 0 .103.35c.376.484.31.885-.062 1.376-.352.464-.189.752.358 1.127.125.085.236.328.208.467-.044.21-.353.447-.303.576.087.226.343.395.256.689-.162.548.111.986.323 1.45.209.454.523.889.336 1.446-.094.279.097.468.232.699.185.319.173.755.535.975.38.232.285.682.493 1.004.295.459.505.983.647 1.522.037.142.403.202.099.431-.159.119-.298.264-.445.398-.197.178-.41.342-.589.537-.621.681-1.047.994-1.574.96-.488-.031-.84.098-1.239.401-.5.379-.611.828-.57 1.37.032.409-.246.659-.515.759-.494.183-.917.427-1.285.795-.026.026-.178-.065-.267-.113-.648-.352-.648-.355-.825.38a2.1 2.1 0 0 1-.187.521c-.673 1.226-.752 1.227-.721 2.291.019.657-.488 1.008-.621 1.558-.052.214-.362.372-.569.538-.312.25.094.284.122.431.01.052.055.097.085.146-.597.331-.423.922-.433 1.417-.012.586-.005 1.227-.19 1.408-.202.197-.336.294-.076.581.242.268.153.743.525.981.294.188.266.564.412.82.166.293.352.535.275.885-.069.311.168.464.321.668q.227.303.41.634c.61 1.085.78 1.228 2.105 1.725.379.654 1.053.369 1.596.5.396.654 1.062.381 1.617.447.564.067 1.172.203 1.644-.304.487.152.837-.2 1.253-.316.303-.085.673-.043.985.043.462.128.675-.34 1.053-.352.113-.003.242.064.339.133.106.075.182.191.271.289.452-.611 1.098-.369 1.643-.293.816.112 1.493-.154 2.178-.499.163-.082.347-.179.52-.176.663.01 1.326.057 1.989.09.543-.531 1.211-.328 1.844-.302.323.014.473-.103.492-.433.006-.108.146-.309.183-.3.551.14.995-.343 1.44-.314.522.034.804-.392 1.251-.381.398.01.819-.038 1.188.076.531.164.798-.419 1.252-.349.627.096 1.151-.023 1.579-.533.098-.118.362-.189.516-.15.555.138.989-.123 1.452-.336.455-.209.891-.52 1.444-.346.032.01.106-.075.144-.127.446-.626 1.07-.659 1.756-.567.46.062.932.027 1.391.085.492.063.905-.018 1.219-.426l1.331-.65c.437-.039.877.177 1.308-.189.374-.316.9-.128 1.329-.054.521.09.735-.574 1.238-.396.242-.312.45-.355.721.003.083.11.368.109.553.09.493-.049.869-.542 1.458-.349.132.043.392-.304.592-.471l.754-.626c.629.31 1.051-.418 1.647-.323.383.06.722.025 1.089-.257.31-.239.912.106 1.216-.39.509.206.725-.585 1.238-.365.384-.542.939-.32 1.446-.333.114-.002.265-.058.333-.143.26-.325.69-.27 1.021-.465.339-.199.885-.043 1.341-.048.257-.003.541.048.764-.044a5.5 5.5 0 0 0 1.137-.641c.361-.26.708-.552.777-1.056.02-.145.149-.084.276.053.118.127.313.245.48.253.378.018.28-.323.376-.545.117-.269.421-.284.653-.108.184.14.267.421.573.119.263-.259.75-.141.983-.521.245-.397.638-.397 1.047-.348.23.028.376-.103.371-.334-.01-.492.031-.913.7-.881.049.002.06-.413.182-.49.474-.301.335-.803.491-1.205.176-.451.548-.822.808-1.245.051-.084-.01-.246-.04-.367-.124-.5-.129-.502.079-.701.143-.138.369-.242.427-.407.122-.349-.053-.748.331-1.081.253-.22.339-.639.563-.947.122-.168.114-.564-.005-.75-.27-.423-.736-.725-.762-1.296-.547-.107-.855-.529-1.209-.897-.02-.021-.203.074-.276.149-.285.289-.648.174-.931.102-.47-.119-.665.408-1.052.354-.167-.023-.315-.186-.471-.285-.296-.188-.3-.197-.679.003-.148.078-.253.301-.429.035-.165-.246-.402-.315-.667-.182-.114.057-.195.242-.299.249-.389.029-.812.1-1.167-.016-.542-.176-.752.436-1.257.377-.987-.115-1.988-.108-2.98-.181-.166-.012-.359-.142-.471-.275-.128-.153-.167-.17-.295-.017-.402.481-.887.726-1.548.598-.37-.071-.791-.154-1.096.243-.015.02-.376-.329-.56-.313-.291.025-.562.287-.853.314-.459.041-.942.035-1.387-.069-.568-.134-.972.225-1.455.324-.607.126-1.314-.312-1.84.324l-1.583-.056c-.39.561-.969.357-1.452.28-.619-.097-.996.509-1.656.372-.729-.151-1.544-.288-2.239.248-.04.03-.155.024-.191-.01-.282-.271-.554-.546-.868-.039-.531-.027-1.066-.017-1.59-.091-.541-.076-.862.474-1.454.37-.616-.108-1.316-.311-1.915.05-.706.424-1.414.011-2.112.113-.061.009-.149.008-.176.046-.342.478-.829.283-1.271.277-.698-.009-1.393-.17-2.061.273-.202.134-.66.096-.862-.261-.099-.174-.18-.195-.283-.046-.211.302-.393.236-.563-.043-.081-.133-.173-.108-.285.047-.182.254-.455.237-.71.185-.176-.037-.428-.102-.483-.226-.056-.129.037-.387.15-.511.166-.182.402-.403.619-.415.397-.023.538-.341.802-.51-.067-.75.686-.598 1.029-.887.2-.168.646-.01.914-.138.356-.171.128-.6.228-.897.037-.11.168-.192.265-.279.432-.391.979-.526 1.523-.657.124-.03.286.055.392.005.279-.131.459-.419.857-.372.201.024.322-.409.649-.343.061.013.15.025.189-.008.204-.168.398-.352.594-.53.394-.356.796-.704 1.18-1.071.373-.356 1.013-.242 1.301-.77.069-.127.343-.236.493-.205.462.094.762-.127 1.023-.435.243-.286.566-.227.872-.307.71-.185 1.362-.555 2.046-.829.207-.083.421-.35.473-.571.075-.318.193-.441.509-.422.251.014.506.086.733-.143.232-.233.381-.462.492-.793.118-.355.584-.102.891-.159.114-.021.217-.131.312-.214.3-.263.553-.622.899-.777.408-.184.806-.33 1.138-.658.158-.157.477-.137.674-.27.273-.184.466-.537.755-.631.308-.1.62-.024.643-.503.015-.305.371-.453.469-.798.088-.316.311-.681.542-.948.174-.202.553-.209.836-.368.32-.179.765-.122.695-.678.273-.162.424-.451.779-.558.585-.177.922-.53 1.374-.994.213-.221.401-.53.805-.482.099.012.303-.104.309-.175.08-.862.925-1.056 1.375-1.59.339-.401.774-.723 1.166-1.08-.152-.47.456-.588.467-1.008.004-.153.188-.319.321-.449.284-.279.574-.554.886-.801.329-.26.557-.541.493-.996a.42.42 0 0 1 .14-.331c.415-.321.683-.732.915-1.199.163-.328.637-.425.673-.91.022-.29.525-.417.417-.811-.129-.471.424-.621.453-1.009.023-.321-.006-.623.305-.882.338-.283.09-.754.204-1.119.054-.169.18-.334.314-.458.395-.364.846-.673.235-1.257-.046-.044-.07-.131-.085-.227.104-.132.136-.303.074-.518.324-.432.663-.789.102-1.256.18-.235.334-.492.485-.748.129-.217.368-.461.302-.681-.121-.4.166-.7-.075-1.122-.285-.502-.149-.872.387-1.017.092-.025.263-.075.258-.087-.282-.622.239-.883.445-1.274.115-.216.053-.417-.04-.633-.153-.356-.154-.636.051-.927.124-.175-.006-.514.056-.748.053-.2.218-.355.332-.531.063-.097.046-.215.015-.337.13-.004.263.001.407.028.247.048.624.1.751-.032.335-.35.718-.339 1.088-.25.459.11.683-.339 1.053-.352.462-.016.941-.022 1.389.076.562.123.973-.213 1.455-.316.439-.094.929-.016 1.385.056.397.064.657-.123.837-.389.361-.533.578-.04.885.045.365.102.786-.008 1.039.411.043.073.289.12.354.069.9-.708 1.9-.16 2.847-.236.46-.036.932.008 1.391.068.433.058.902-.13 1.289.297.341.376.87.177 1.313.213.463.038.922.008 1.207.471.604-.116.988.195 1.331.642.1.13.315.204.49.239.249.049.508-.002.702.248.244.313.492.645.807.876.33.244.763.316.796.874.011.191.319.4.532.54.911.595.869.614 1.311 1.492.141.281.236.577.378.842.182.341.488.632.788.889.306.263.271.572.235.898-.042.381.21.401.484.443.098.015.178.143.265.22-.588.273-.095.564-.046.875.061.384.007.796-.048 1.189-.065.476.579.732.347 1.25-.153.341.704.743-.054 1.063l.128.147c.284.34.702.604.648 1.137.719.429-.286.674-.121 1.087.087.217.005.486.212.71.252.273.131.764.52.981-.555.261-.132.54-.073.87.1.551-.162 1.169.347 1.64l-.09 1.79c-.007.132-.072.309-.011.391.722.97.188 2.032.221 3.045.03.926-.069 1.856-.128 2.784-.026.402-.054.78.321 1.067.063.048.061.327.001.367-.62.414-.407 1.057-.467 1.618-.048.462.028.95-.095 1.386-.149.533.368.807.354 1.254-.016.53-.099 1.064-.065 1.59.04.614-.384 1.079-.46 1.611a20.4 20.4 0 0 0-.184 3.376c.024 1.079-.515 2.206.218 3.237-.064 1.26-.115 2.521-.206 3.778-.011.152-.259.276-.357.437-.061.101-.111.309-.057.365.532.556.31 1.224.283 1.853-.007.162-.182.315-.276.474-.184.31-.189.314-.015.678.055.114.225.21.22.309-.061 1.321-.143 2.642-.221 3.963-.626.409-.365 1.067-.439 1.622-.069.524-.119 1.064-.076 1.589.069.828-.334 1.457-.739 2.1-.066.105-.138.206-.189.318-.026.056-.009.131-.015.197-.018.237.548.303.229.577-.306.262-.29.562-.3.883-.011.33-.083.591-.309.882-.2.256.363.554.232.982-.109.361-.027.741-.397 1.049-.276.23.047.749-.343 1.054-.423.333-.177.864-.238 1.303-.064.458-.034.929-.091 1.389a.82.82 0 0 1-.271.473c-.15.128-.135.15-.031.297.426.599.414 1.186-.105 1.753-.205.224-.191.567-.445.818-.187.184-.058.67-.235.885-.224.272-.365.51-.359.859.006.331-.069.667-.036.994.065.663-.226 1.113-.731 1.495-.237.18-.218.307-.048.672.079.167.22.332.225.502.019.509-.133 1.036.322 1.463.048.044-.088.356-.204.486-.146.162-.234.373-.009.398.398.044.518.155.587.574.055.333.352.754.809.702.78-.088 1.319.391 1.89.75.351.22.576.228.834-.051.229-.25.604-.071.863-.361.217-.243.355-.228.642.058.342.341.751.354 1.068.214.291-.129.541-.417.873-.276.588.25 1-.203 1.436-.376.499-.197.972-.578 1.175-1.201.11-.34.407-.651.867-.66.111-.002.312-.095.317-.159.044-.533.484-.862.651-1.327.061-.171.265-.33.253-.482-.036-.443.321-.683.436-1.019.145-.423.094-.919.094-1.383-.001-.351.11-.602.373-.851.203-.194.104-.472-.112-.675-.221-.21-.278-.522-.031-.666.594-.347.005-1.253.756-1.492.022-.007.01-.125.012-.191.007-.198.096-.504.004-.575-.511-.396-.181-.613.128-.859.205-.164.377-.328.379-.638.003-.597.045-1.194.085-1.79.026-.397.068-.775-.301-1.078-.067-.055.027-.35.096-.514.07-.168.267-.301.293-.467.061-.392.053-.794.073-1.192.016-.331.099-.676.035-.991-.098-.484.498-.601.461-1.012-.035-.378.23-.807-.104-1.129-.304-.294.063-.393.084-.57.03-.257-.19-.533-.237-.812-.029-.174.002-.45.116-.538.305-.237.323-.532.349-.866.031-.41.029-.778-.34-1.063-.061-.047-.046-.338.014-.371.519-.285.229-.545.055-.887-.132-.261.144-.643-.157-.918-.428-.392.279-.439.227-.732-.045-.25.033-.548-.079-.751-.126-.228-.237-.295-.028-.594.321-.46.346-.956.074-1.441-.178-.316-.1-.388.096-.583.211-.212.165-.469-.055-.676-.216-.204-.284-.455-.094-.679.169-.2.39-.346.351-.652" style="fill:#231f20;fill-rule:nonzero" transform="translate(1042.117 517.173)scale(4.16667)"/><path d="M0 183.598c-.005-.024-.005-.046-.012-.07a.5.5 0 0 1 .003-.22c.012.036.017.073.035.109.015.027-.001.11-.026.181m-1.339.035q.014-.147.029-.293.021-.175.053-.351c.048.074.123.145.177.239.047.081-.194.204-.259.405m.225-1.834c.006.273.088.648-.053.796-.013.014-.02.026-.031.039.043-.272.071-.541.029-.799a.67.67 0 0 1 .04-.371c.004.112.012.223.015.335m113.088-99.274c-.15-.337-.355-.697-.634-.922-.377-.305-.346-.671-.403-1.049-.009-.06-.171-.133-.268-.149-.584-.098-.864-.97-1.604-.69-.044.017-.178-.134-.241-.227-.266-.395-.755-.411-1.102-.686-.177-.141-.533-.035-.804-.076-.144-.022-.402-.132-.4-.183.029-.551-.335-.475-.669-.484-.213-.005-.504.027-.625-.094-.305-.305-.783-.494-.819-1.019-.003-.046-.049-.094-.083-.136-.081-.101-.134-.051-.242.053-.103.101-.364.221-.395.187-.28-.31-.885-.126-.99-.687-.018-.098-.111-.271-.146-.267-.63.079-1.02-.307-1.426-.715-.375-.376-.57-.425-1.6-.66-.177-.041-.303-.13-.278-.341s-.106-.307-.287-.328c-.264-.032-.554.09-.77-.191-.384-.498-1.009-.638-1.481-1.035-.42-.353-1.033-.502-1.548-.776-.441-.235-.449-.215-.764-.746-.203-.344-.431-.657-.894-.603l-1.163-.49c-.207-.198-.455-.369-.612-.6-.216-.32-.601-.197-.856-.454-.355-.358-.6-.774-.888-1.172-.248-.341-.296-.46-.803-.121-.066.044-.196.098-.227.069-.382-.345-.781-.681-1.118-1.069-.371-.427-.792-.595-1.326-.518-.404.058-.374-.252-.476-.51-.052-.131-.389-.133-.555-.253a3 3 0 0 1-.62-.591c-.247-.32-.551-.344-.895-.323-.191.011-.301-.103-.31-.303-.015-.338-.024-.677-.049-1.015-.016-.237-.394-.724-.627-.681-.547.1-.812-.269-1.156-.554-.111-.092-.301-.13-.45-.125-.239.009-.421-.043-.593-.231-.223-.243-.442-.523-.829-.477-.328-.389-.946-.338-1.207-.829-.471-.075-.793-.586-1.337-.483-.332.062-.494-.383-.88-.369-.22.007-.159-.369-.178-.582-.035-.39-.339-.548-.619-.719-.132-.08-.411-.121-.413-.178-.009-.342-.108-.495-.486-.507-.494-.016-.494-.05-.59-.53-.103-.513-.408-.796-.874-.802-.28-.004-.56.003-.84.005-.056 0-.136.024-.164-.004-.075-.074-.158-.163-.184-.26-.25-.905-.28-.95-1.073-1.579-.222-.176-.453-.364-.38-.696.074-.337-.252-.469-.362-.707-.171-.37.369-.506.295-.875-.044-.22.064-.53-.053-.662-.561-.638-.314-1.378-.412-2.071-.031-.224.064-.566-.05-.656-.419-.329-.239-.84-.48-1.183-.146-.208-.256-.289-.029-.496.287-.263-.132-.786.306-1.046.086-.052.071-.299.071-.457 0-.485-.154-1.004.276-1.385-.044-.263.08-.569-.208-.772-.2-.141-.094-.236.009-.363a.694.694 0 0 0-.002-.902c-.169-.21-.229-.284-.035-.505.115-.131.112-.413.082-.618-.076-.531.149-.873.621-.983.287-.066.356-.19.331-.436-.037-.375.094-.8-.34-1.06-.001-.266-.071-.561.018-.788.074-.19.246-.325.219-.579-.042-.394-.012-.793-.068-1.183-.073-.514.093-.913.563-1.037.604-.159.753-.523.697-1.091-.044-.45-.161-.943-.034-1.341.124-.387.529-.667.788-1.012.073-.096.11-.224.155-.345l7.383-2.417c.096-.18.12-.489.14-.751.034-.459-.046-1.02.083-1.364.121-.323.549-.131.689-.62.524-.017.741-.734 1.084-1.174.083-.107.327.026.47.145.337.28.366.303.506.003.034-.074.088-.126.117-.204.196-.529.187-1.363.59-1.557.371-.178.803-.075 1.208-.086.177-.006.356-.019.532.023.323.078.555-.096.745-.495.141-.294.331-.523.471-.818.156-.328.345-.469.601-.375.525.192.903-.111 1.188-.789.246-.585.773-.855.699-1.797.44-.209.79-.619 1.078-1.192.144-.286.329-.514.262-.962-.143-.967.087-1.669.525-2.201.142-.174.154-.271-.013-.42-.473-.418-.068-1.312-.425-1.803-.076-.106-.187-.367-.171-.4.184-.359.412-.658.579-1.035.087-.195.053-.533.118-.769.153-.556.163-.547.009-.828-.56-1.023-.56-1.023-.562-3.001-.001-1.683-.164-2.416-.934-3.837-.175-.323-.297-.604-.267-1.02.096-1.29-.26-2.358-.722-3.391-.13-.292-.148-.731-.294-.982-.2-.341-.206-.698-.194-1.066.014-.463-.247-.646-.338-.971-.094-.334-.037-.759-.087-1.134-.095-.71.161-1.513-.288-2.13-.573.115-.684-1.105-1.159-1.186-.28-.048-.417-.332-.584-.596-.07-.11-.109-.273-.161-.413.481-.369.178-1.2.318-1.778.17-.709.145-.735-.148-.752-.355-.02-.714.043-1.063-.06-.321-.095-.537-.747-.937-.606-.35.123-.527-.405-.714-.754-.142-.266-.147-.799-.301-.954-.18-.179-.458-.046-.691-.1-.282-.065-.586.189-.846-.202q-.405-.613-.78-1.276c-.012-.023-1.375-.124-1.293-.213.147-.161-1.814.045-1.982-.03-.342-.151-1.701.807-1.699-.025 0-.26-1.669.198-1.866.122-.317-.124-.717-.326-.944.293-.087.238-.126.094-.259-.01-.873-.68-3.049.152-4.015-.227l-2.556 1.131c-.012-.158-.129-.248-.305-.248-.448.001-.897-.002-1.344.012-.292.009-.3-.185-.408-.394-.34-.661-.693-.766-1.313-.471-.124.059-.167.224-.366.054-.196-.167-.465-.247-.701-.365-.529-.266-1.033-.541-1.668-.518-.324.012-.694-.234-1.001-.431-.368-.236-.362-.283-1.159-.192-.402.045-.606-.198-.859-.421-.4-.351-.861-.409-1.125-.017-.271.403-.752.381-1.054.695-.155.162-.213-.083-.245-.235-.021-.1-.079-.277-.121-.279a7 7 0 0 0-1.124.022c-.056.007-.031.311-.11.433-.137.213-.617.312-.882.066-.44-.41-.695-.231-.937.117-.263.377-.659.455-1.009.285-.258-.124-.392-.326-.612-.001-.181.266-.401.548-.705.074-.115.109-.212.28-.349.316-.302.077-.618-.04-.917.239-.188.176-.641.037-.935.142a1.24 1.24 0 0 0-.599.505c-.115.194.046.413.241.572.071.057.088.189.115.29a.25.25 0 0 1-.012.159c-.065.144-.129.123-.235.069-.728-.374-.738-.367-1.076.177-.355.569-.747 1.078-1.544.941a.4.4 0 0 0-.168.002c-.172.043-.264.131-.256.342.006.208.117.434-.08.632-.259.259-.58.485-.576.935.001.047-.275.108-.427.125-.485.055-.489.048-.491.437-.001.168.025.339.019.507-.014.367-.285.727-.686.746-.593.029-.905.274-.925.873-.328.208-.328.532-.298.88.008.09-.075.265-.125.266-.701.021-.751.635-1.006 1.072-.21.36-.406.424-.79.16-.325-.223-.614-.194-.922-.098-.149.046-.122.143.023.238.08.053.13.154.193.234-.413.259-.281.682-.251 1.058.005.065-.005.111-.012.161a.42.42 0 0 0-.246.067c-.188.125-1.506-1.223-1.463-.758.036.386-.588-.884-.584-.495.011 1.025-.145.226-.719.22-.296-.003-.631.131-.879-.064-.44-.347-.718 1.006-1.155.087-.201.273-.398.556-.606.815-.082.103-.192.226-.288.211-.373-.061-.619.288-.922.491-.331.223-.79.023-1.058.617-.432-.144-.732.33-1.09.486-.573.251-1.281-.275-1.777.577-.354-.013-.712.03-1.064-.053-.392-.092-.492.777-.902.569-.499-.253-.86.22-1.258.528-.719.556-.724.597-1.431.516-.402-.047-.659.16-.89.621-.331.659-.737.857-1.198.191-.206-.297-.413-.441-.608-.169-.175.246-.318.465-.587.439a19 19 0 0 0-1.774-.068c-.165-.001-.392-.011-.477.149-.371.695-.874.267-1.312.362-.276-.692-.471-.294-.783-.07-.487.35-.981.735-1.6.611-.483-.098-1.073-.425-1.464.396-.007.016-.175-.142-.246-.256-.202-.324-.46-.439-.598-.09-.319.8-1.087-.066-1.348.926-.03.112-.335.013-.512-.005-.297-.031-.533.039-.781.381-.25.343-.656.354-.941-.137-.259-.445-.547-.32-.823-.318-.182.001-.289.215-.259.576.022.263-.064.691-.224.399-.366-.663-.771-.369-1.159-.464-.447-.11-.813-.029-.766.927-.274.273-.584.422-.862.713-.3.315-.819-.265-1.153.25-.389.601-.883.22-1.326.28-.462.062-.933.024-1.4.029-.358 1.106-1.292-.119-1.685.947-.038.102-.197-.292-.222-.572-.018-.215-.025-.633-.283-.345-.134.149-.192.426-.418.407-.453-.038-.945-.243-1.274.502-.031.072-.304-.139-.459-.245-.093-.063-.173-.178-.26-.27-.223.883-.883.156-1.193.775-.293.585-.964-.113-1.19.783-.01.043-.11.044-.163.021-.107-.046-.251-.072-.308-.193-.204-.434-.304-.276-.524-.03-.203.227-.599.017-.798.248-.232.268-.529.346-.709.597-.28.388-.395.341-.662-.06-.184-.276-.426-.071-.588.248-.092.182-.185.383-.29.546q-.087.006-.171.004a.43.43 0 0 1-.255.243c-.191-.111-.337-.499-.523-.568-.248-.092-.41-.342-.611-.484-.245-.172-.55-.081-.828-.104-.251.926-1.065.035-1.309.984-.527-.002-1.055-.018-1.582 0-.342.011-.721-.057-1.008.155-.214.158-.287.388-.525-.009-.19-.316-.798-.321-1.251-.263-.224.029-.473.01-.687-.115-1.15-.671-1.141-.658-2.408-.054-.244.116-.564-.003-.831-.136-.374-.187-.359-.221-.507-.028-.21.275-.308.819-.671.744-.305-.063-.572-.005-.759.44-.095.23-.233.411-.355.61-.09.146-.161.26-.227.359a1.6 1.6 0 0 1-.491-.196c-.21-.134-.272-.117-.308-.016l-.074-.113c-.342-.536-.544-.762-1.019-.239-.425.467-1.107.437-1.64-.142-.329-.358-.319-.159-.376.291-.079.613-.278 1.005-.602 1.113a1.33 1.33 0 0 1-.799-.286c-.064-.049-.193-.059-.303-.04-.271-.281-.62-.289-.848-.711-.122-.225-.167-.163-.262.319-.033.168-.034.48-.084.494-.61.176-1.222.401-1.811-.372-.101-.132-.359-.13-.463-.009-.23.268-.385.704-.619.961-.093.104-.312-.08-.473-.138-.131-.047-.192-.671-.376-.202-.2.511-.621.292-.866.749-.125.233-.529.056-.807.064-.476-1.007-.778-.37-1.106.175-.11.184-.262.311-.407.425-.391.308-.747.804-1.252.553-.021.044-.042.082-.063.123-.247.017-.483.067-.654.319h-.016a1.4 1.4 0 0 1-.259-.342c-.178-.307-.563-.182-.736-.666-.2.276-.382.604-.607.817q-.113.109-.228.216l-.494.021c-.231.557-1.002.063-1.239.607-.342.104-.648.277-.95.456q-.41-.018-.819-.028a.2.2 0 0 0-.053-.002l-.081-.003c-.292-.006-.582.011-.873.018-.243.948-1.057.059-1.308.983-.179.08-.346.194-.511.319a.9.9 0 0 1-.383.035c-.394-.052-.75-.002-1.005.29-.161-.022-.322.149-.532.321l-.101.081-.069.002c-.149 0-.355.037-.432.138-.325.427-.727.623-1.276.545-.397-.056-.441.2-.418.515.001.026-.192.104-.216.079-.166-.168-.297-.312-.491-.037-.11.155-.232.28-.258.487-.311.033-.581.234-.764.771-.126.371-.351.393-.599.381-.158-.008-.375.045-.457.216-.343.719-.767 1.037-1.346.875-.42-.116-.466.323-.442.866.002.046-.202.169-.228.126-.175-.298-.313-.552-.517-.089-.131.294-.284.508-.285.954-.001.663-.516.193-.644.634-.023.078-.008.186-.029.266q-.377 1.45-.764 2.894c-.022.082-.109.13-.112.205-.018.455-.139 1.105-.003 1.331.301.5.334 1.001.343 1.581.009.583.061 1.173.041 1.749-.032.931.17 1.624.609 2.298.273.417.441 1.09.564 1.689.418 2.044.806 3.236 1.504 4.362.611.986 1.22 1.976 1.842 2.945.12.186.326.444.433.393.469-.224.75.459 1.108.695.361.238.656.817.961 1.28.397.604.742 1.357 1.367 1.101.03-.013.107.107.13.187.158.55.564.231.75.645.224.5.528.33.808.395a.5.5 0 0 1 .292.267c.367.804.838.982 1.401.966.943-.027 1.892.059 2.838.081.354.008.708-.036.944.575.482-.128.858.43 1.284.639.429.21.932-.146 1.3.646.035.075.338-.05.442-.211.182-.28.401-.5.596-.233.246.337.462.599.781.531.713-.151 1.326.386 1.922.991.402.408.756.471 1.086-.088.274-.463.519-.198.733.222.103.201.162.184.254-.05.138-.351.42-.534.579-.241.295.538.615.508.965.534.564.043 1.159-.18 1.644.637.356-.026.642.117.965.531.212.271.696.345.925-.26.095-.251.123-.136.261-.011.599.544 1.182.582 1.792.22.15-.089.286-.291.439-.307.351-.037.723-.106 1.059.05.489.226.688-.808 1.074-.535.371.262.689.691 1.122.6.157-.034.376.005.489.163.198.276.267.364.53.1.417-.418.835-.291 1.299.017.899.596 1.205.576 2.06-.137.516.101.588-.886.941-1.03.434-.179.927-.045 1.394-.058.048-.002.109-.069.134-.138.176-.487.472-.431.768-.411.285.02.551.075.791-.335.271-.464.373.442.691.443.488 0 1.029-.384 1.508.436.156.268.2-.154.232-.415.085-.698.316-1.148.8-1.153.401-.004.829.053 1.189-.147.207-.115.272-.371.524.003.296.441.555.324.613-.255.045-.436.093-.697.394-.668.173.017.403.096.509-.046.556-.74 1.102-.68 1.708.027.106.124.349.097.464-.021.189-.193.344-.496.481-.794.104-.226.135-.205.261-.023.412.597.815.64 1.215.03.093-.142.402-.182.452-.075.27.575.612.566.962.538.671-.053 1.381.322 1.985-.471.155-.203.57-.175.795.323.036.079.087.142.13.212.494-.874 1.18-.356 1.775-.506.085-.021.105-.467.171-.702.058-.205.088-.615.31-.182.174.341.382.479.612.299.146-.114.248-.448.392-.473.346-.061.706.001 1.062.014.295.011.6.088.884.013.265-.07.481-.867.782.008.384-.899.627-.101.883.313.254.411.502.551.732.088.172-.346.406-.233.626-.292.774-.207 1.649.618 2.357-.391.093-.133.186.297.23.564.066.401.439.719.491.518.242-.955.89-.221 1.213-.738.433-.694.995-.282 1.495-.298 1.002-.031 2.01.055 3.015.087.234.007.574.156.681-.038.47-.848 1.089-.395 1.641-.446.527-.048 1.074.116 1.593.019.605-.113 1.112.32 1.649.657.106.067.289.103.344.008.453-.776 1.056-.504 1.62-.511.059-.001.152.045.171-.001.085-.202.15-.429.22-.648.05-.155.077-.421.15-.452.582-.246 1.314.481 1.776-.559.043.07.089.137.13.211.233.422.469.585.737.152.301-.487.312-.42 1.03-.316.513.074 1.083.266 1.386-.698.117-.373.339-.418.594-.391.473.05.946.043 1.419.06.296.011.604.097.884.01.258-.081.474-.464.73-.509.401-.069.819.034 1.229.065.37 1.092.61-.244.963-.039.163.095.593.378.971.688l-.004.004c-.355.271-.108.425.098.604-.147.161-.287.328-.442.48-.228.224-.293.455-.016.698.37.323.188.738.221 1.109.034.374.052.681.551.61.018-.002.11.204.09.22-.338.283-.241.816-.648 1.085-.379.25-.319.678-.039 1.014.211.252.312.45.068.704q-.458.478-.906.964c-.239.259-.263.682-.189 1.314.057.484.179 1.011-.32 1.366a.66.66 0 0 0-.251.39c-.035.217.053.46.008.672-.052.248-.267.469-.274.712-.009.316-.118.681.132.967.347.398.356.749.054 1.168-.193.267-.135.594.069.911.296.458.282.48-.043.812-.223.227-.517.424-.045.735.052.034.018.35-.07.431-.223.204-.096.287.024.501.234.418.258.9.001 1.225-.193.244.035.918-.636.723a2.35 2.35 0 0 1-.657 1.069c-.095.088-.098.291-.114.445-.042.377.151.781-.062 1.138-.344.579-.425 1.326-.993 1.754-.369.278-.435.717-.662 1.067-.233.363-.025.76-.073 1.134-.035.266.165.579-.077.796-.289.261-.178.735-.514.959.099.41-.116.71-.27 1.055-.187.42-.333.858-.328 1.375.003.447-.348.869-.249 1.388.023.127-.084.312-.187.412-.283.277-.498.545-.422 1.004.054.314-.407.48-.291.877.121.41-.265.57-.474.797-.179.194-.13.403-.123.617.011.395.106.808.031 1.18-.07.343-.288.666-.499.954-.119.163-.111.314-.082.466.097.491-.035.865-.42 1.169a.55.55 0 0 0-.175.416c.051.528-.349.86-.476 1.309-.097.344-.367.644-.417.989-.047.332.004.665-.318.874.126.428-.268.559-.436.822-.081.127-.192.294-.166.422.079.398-.129.628-.374.854-.164.151-.336.318-.243.563.247.645-.497 1.09-.262 1.725-.288.221-.309.523-.312.876-.003.423-.447.585-.662.891-.091.129-.279.274-.257.386.134.682-.073 1.197-.6 1.597-.027.021-.01.105-.008.16.009.225.064.462.019.673-.052.249-.254.467-.278.713-.043.426.058.843-.268 1.237-.159.191.059.613-.231.904-.145.146.022.61-.124.754-.253.249-.153.637-.417.842-.216.167-.109.404-.12.616-.022.425.196.912-.271 1.22.148.472-.117.831-.293 1.21-.179.385-.41.742-.282 1.218.178.669-.536 1.193-.256 1.895.024.061-.073.215-.152.258-.471.257-.388.889-.778 1.183-.304.231-.347.526-.302.88.066.512.066 1.004-.423 1.327-.08.053-.179.18-.164.257.13.669-.039 1.202-.579 1.605-.055.041-.027.211-.013.32.029.233-.046.401-.176.599-.193.294-.305.648-.423.988s-.448.617-.292 1.044c-.465.662-.627 1.421-.659 2.23-.003.086-.222.188-.204.237.161.45-.519.595-.322 1.042-.462.306-.271.787-.286 1.215-.004.097-.08.188-.12.282-.162.378-.438.747-.453 1.137-.021.497-.55.841-.302 1.383-.505.43-.1 1.348-.836 1.66-.122.051-.078.137.053.238.266.207.235.406.084.703-.23.453-.592.89-.458 1.473.016.067.008.124.013.186-.012.084-.02.17-.049.247-.103.268-.432.505-.425.749.001.046-.017.08-.023.123l-.003.003c-.145.17-.231.397-.303.63-.083.115-.16.232-.193.37-.015.061-.017.125-.027.188a.7.7 0 0 1-.181.112c-.39.18-.481.358-.291.533.387.357.408.641.016.949-.005.441-.341.746-.428 1.157-.031.148-.17.269-.197.417-.03.162 0 .339.03.514-.132.178-.245.368-.214.637q.012.107.015.232c-.109.172-.094.37-.095.568-.02.034-.036.074-.063.094-.444.323-.489.767-.43 1.166.088.594-.465.838-.555 1.313-.158.83-.034 1.696-.618 2.468-.335.441.092 1.269-.593 1.669-.045.375-.072.754-.139 1.126-.064.35.044.735-.357 1.012-.342.236-.146.703-.251 1.054a1.5 1.5 0 0 0-.048.42c-.173.136-.211.458-.048.582q.006.002.014.004a.7.7 0 0 1-.235.414.7.7 0 0 0-.24.414c-.083.039-.177.08-.193.142-.064.23-.06.479-.126.708-.035.124-.03.19.035.207-.016.019-.035.04-.048.057.021-.098-.038-.139-.181-.107a.23.23 0 0 0-.141.094c-.054.095-.115.202-.117.306-.002.102.066.205.104.308.083-.053.2-.089.241-.165.012-.024.014-.054.021-.082a.6.6 0 0 0 .144.164c-.13.18-.325.344-.376.544-.092.365-.098.751-.14 1.129-.049.44-.163.885-.129 1.319.036.461-.462.56-.503.935-.061.547-.222 1.108-.163 1.638-.005.016-.015.031-.019.047-.038.13-.032.273-.018.419-.132.395-.507.658-.556 1.091-.077.668.089 1.425-.37 1.986-.499.609-.234 1.327-.433 1.967-.018.057-.023.14-.061.164-.601.367-.393 1.003-.5 1.526-.089.432-.106.879-.155 1.319-.683.547-.465 1.36-.611 2.065-.013.062.01.155-.025.185-.793.664-.409 1.639-.654 2.445-.209.688.186 1.553-.606 2.068-.056.503-.135 1.004-.163 1.508-.032.563-.752.86-.555 1.499-.247.871.124 1.888-.658 2.648-.14.136-.072.487-.1.738-.139 1.258-.358 2.513-.386 3.773-.013.628-.567.926-.592 1.499-.027.63-.129 1.258-.199 1.886q-.232 2.075-.46 4.151c-.041.371-.035.743-.435.975-.077.044-.085.368-.007.487.14.217.247.398.21.678a64 64 0 0 0-.31 2.829c-.014.157.082.358.191.483.126.143.127.176-.038.28-.463.295-.419.707-.214 1.167l.924-.686c.027.206.077.381.066.552-.024.378-.218.815-.086 1.117.179.413.316.774.235 1.225-.011.06.263.206.421.248.085.022.285-.082.297-.152.075-.436.189-.887.14-1.316-.059-.525.473-.703.524-1.125.099-.817.182-1.635.277-2.452.043-.373.1-.745.151-1.117.702-.477.37-1.263.564-1.892.087-.283-.168-.45-.218-.665-.033-.142.297-.337.336-.534.066-.328.1-.663.132-.997.032.417.015.839.072 1.253.071.512-.11.937-.263 1.392-.08.239.024.549.058.825.005.043.073.098.121.113.028.008.082-.046.112-.082.165-.203.457-.34.37-.68-.17-.656.287-1.1.47-1.638.072-.214.19-.414.287-.621.08.196.105.418.004.695-.109.299-.165.614.011.864-.096.283.072.493.057.706-.029.411-.173.828-.269 1.242.239.363.054.786-.054 1.173-.134.483-.048.793.221 1.023.315.271.374.804.564 1.204.116.244-.104.508-.081.746.01.102.144.182.237.22.044.018.165-.075.182-.14.121-.462.225-.931.334-1.397.094-.401.146-.833.477-1.057.021-.375.233-.612.392-.887-.241-.447.068-.899.138-1.343.049-.316.136-.604-.016-.879-.025-.046.074-.31.152-.381.148-.133.207-.294.275-.502.16-.485.432-.864.757-1.152.446-.395.531-.487.592-.717.091-.343.141-.662.411-.943.272-.285-.143-.724.069-1.136.033-.065.023-.213-.009-.278-.033-.067-.128-.064-.178-.119-.063-.069-.217-.122-.019-.3a.77.77 0 0 0 .22-.346c.17-.666.319-1.339.462-1.948.466-.516 1.016-.729 1.341-1.428.068-.145.275-.272.4-.267.516.021.703-.628.938-1.037.233-.404.292-.987.427-1.491.455-.381.359-1.046.536-1.569.101-.302.154-.598.406-.761.04-.025.029-.277.029-.423.001-.115-.167-.199.022-.353a.7.7 0 0 0 .216-.348c.114-.595.425-1.187.209-1.804-.019-.053.11-.284.197-.351.293-.226.511-.482.572-.975.043-.356.212-.717 0-1.019.175-.136.321-.281.373-.589.072-.418.22-.828.278-1.246.091-.654.383-1.131.717-1.589.055-.074.143-.131.166-.214.085-.306.124-.635.231-.927.098-.268.359-.506.377-.748.047-.633.597-.905.605-1.524.234-.154.356-.406.408-.745.039-.257.098-.484.305-.658.221-.186.184-.574.275-.867.077-.249.132-.509.196-.764.375-.155.144-.442.151-.688.006-.25.224-.302.296-.462.141-.315.163-.791.345-.987.27-.293.285-.64.375-.976.075-.278.186-.292.348-.266.116.019.239-.067.235-.262-.003-.185-.114-.393-.065-.532.056-.158.285-.2.3-.456.039-.665.556-1.022.66-1.642.355-.233.331-.525.18-.881-.026-.061.072-.312.15-.383.147-.133.216-.285.275-.502.095-.343.055-.81.323-1.003.326-.235.16-.876.548-.997.111-.401.207-.809.335-1.202.138-.426.082-.973.481-1.243.106-.405.253-.807.309-1.216.062-.455.439-.582.503-1.054.068-.507.259-1.006.396-1.508.427-.335.318-.954.506-1.413.034-.083.124-.142.194-.184.105-.063.113-.117.041-.229-.103-.163-.121-.439.013-.543.249-.193.307-.47.385-.778.136-.54.581-.893.596-1.526.002-.085.167-.215.267-.289.225-.164.365-.374.427-.732.068-.395.101-.852.46-1.055-.033-.087-.092-.169-.095-.263-.003-.138.013-.385.061-.414.388-.238.609-.655.754-1.172.252-.179.377-.415.206-.739-.063-.121-.059-.159.046-.229.338-.222.591-.544.638-1.083.034-.393.256-.623.427-.916.136-.234.179-.53.376-.782.176-.225.211-.68.293-1.038.072-.312.17-.548.379-.784.152-.171.136-.611.257-.886.091-.209.338-.273.37-.598.003-.028.196-.047.3-.086.275-.102.373-.501.546-.749.172-.246.149-.726.285-1.055.128-.307.416-.503.428-.908.016-.515.306-.862.528-1.195.231-.347.495-.572.224-1.012-.026-.042.027-.269.068-.292.314-.178.371-.552.435-.913.041-.236.162-.341.284-.488.11-.132.422-.091.289-.5-.115-.357.271-.371.305-.71.052-.519.225-1.037.346-1.556.451-.286.388-.898.552-1.366.031-.089.082-.205.138-.238.417-.244.562-.704.682-1.25.058-.263.337-.398.432-.711.038-.125.203-.194.245-.32.132-.39.232-.795.344-1.195.399-.281.315-.838.461-1.261.059-.171.132-.309.239-.276.252.077.322-.107.392-.406a6 6 0 0 1 .191-.712c-.031.125-.02.221.14.239.315.037-.27.111-.158.366.075.17.126.521.062.564-.348.234-.335.459-.153.884.121.282-.144.691.159 1.013.386.409.239.969.049 1.209-.29.367-.234.62-.19 1.073.054.543.123 1.103.157 1.656.039.642.075.64-.244 1.329-.205.443-.362.893-.014 1.395.08.115.21.291.184.379-.155.531.019 1.208-.417 1.606-.177.16-.227.323-.115.54.169.329.379.634.536.968.044.096.011.337-.056.376-.364.221-.219.481-.169.871.051.398.163.828.136 1.234-.031.437-.135.861-.208 1.291-.524.242-.389.629-.095 1.023.147.197.226.4.275.607a.5.5 0 0 1-.112.248c-.306.358-.143.737-.13 1.107.026.732.081 1.465.149 2.196a.66.66 0 0 1-.211.586c-.025.024.042.153.078.229.066.144.235.367.196.413-.45.53-.208 1.152-.205 1.741 0 .273.096.647-.041.795-.064.069-.065.141-.099.212q-.122.058-.248.113c-.205.086-.218.207-.13.361.028.046.076.086.109.131.091.124.14.2.203.292-.044.273-.331.432-.284.708.018.101.017.206.02.31-.061.046-.092.076-.164.129-.079.059-.159.226-.143.235.583.327.183.854.552 1.231.322.329.664.678.823 1.052.076.177-.029.376.238.449-.042.179-.064.353-.176.41q0 .002-.004.004a6 6 0 0 0-.288.139c-.436.223-.515.532-.265.996.036.067.09.259.142.467-.022.044-.071.103-.059.13.199.402.23.642-.129.889-.158.107-.111.36.023.57.12.191.252.389.279.573-.395.213-.581.482-.395.884q-.035.201-.067.401l-.004.004c-.343.135-.406.455-.32.626.236.473.005.863-.069 1.283-.076.431-.33.859-.149 1.293-.062.373-.132.743-.188 1.116-.034.217.335.552.072.754-.354.27-.358.531-.084.877.393.499.509 1.029.301 1.631-.068.198-.013.549-.125.62-.465.297-.386.627-.096 1.051.175.255.264.516-.051.716-.329.208-.639.454-.968.664-.205.131-.217.31-.127.537.027.068.074.127.108.193.61 1.207.606 1.205-.219 2.133-.079.088-.16.336-.144.349.586.475.187 1.261.557 1.813.323.481.666.992.828 1.543.088.306-.101.674.382.709.011.001.067.279.024.317-.197.174-.426.3-.634.461-.435.337-.511.795-.26 1.478.092.252.309 1.647.279 1.838-.07.43-.151.858-.204 1.292-.004.041.168.161.263.179.291.054.285.309.145.401-.605.398-.938.876-.537 1.741.034.076-.059.298-.145.349-.341.205-.403.68-.317.932.239.697.008 1.277-.064 1.899-.095.83-.515 1.656.146 2.492.025.033.001.184-.035.204-.672.357-.22.794-.005 1.228.168.342.238.505.229.798-.227.154-.443.309-.403.595.09.655-.468 1.377.367 1.964.013.01-.162.23-.297.295-.25.12-.205.181-.118.337.142.257.253.48.33.683.041.327-.074.67-.096 1.005a1.3 1.3 0 0 1-.188.175c-.847.658.142 1.778-1.153 2.217-.157.8.193 1.7-.79 2.345-.084.055-.035.378.057.412.6.227.243 1.075.961 1.208-.012.594-.032 1.186-.736 1.649-.084.054-.036.377.057.412.693.262.105 1.355 1.374 1.216.242.325.873.476.796.932-.065.386.522.503.533.771.013.335.292.558.38.819.07.207.181.406.295.604-.405.431-.506 1.032-.824 1.512-.192.292.115.714-.25.961.331.146.153.504.306.743.157.244.382.486.363.822-.003.063.018.148.061.189.278.267.512.583.999.479.338-.072.701-.04 1.053-.032.132.111.282.205.414.229.876.16 1.286.681 1.82 1.117.736-.16.9.601 1.524.57.791-.039 1.654.366 2.351-.048.478-.283.935-.162 1.403-.231.521-.075.54.778 1.135.326.441-.336.94-.182 1.419-.159.16.008.333.148.457.256.425.37.819.323 1.274.028.439-.284 1.168-.14 1.544-.574.057-.066.386.015.588.013 1.258-.012 2.551-.374 3.445-.962.384-.253.759-.516 1.149-.763.234-.148.44-.301.61-.478.152.034.303.065.453.105a.74.74 0 0 0 .897-.486c.158.041.295.188.445.266.227-.302.602.07.83-.233.302.064.605.118.903.196.308.08.578-.12.633-.356.079-.34.244-.548.48-.634.068-.025.105-.072.144-.118.075-.017.141-.048.239-.037.26.031.322-.066.376-.18.025-.05.147-.127.219-.126.189.002.366.048.378-.121.009-.127.072-.241.326-.316.279-.083.529-.197.794-.295.151-.056.217-.114.098-.205-.038-.029-.022-.077-.033-.116-.016-.058-.016-.12-.055-.173-.108-.151.062-.109.219-.109.099 0 .279-.037.291-.069.081-.22.307-.454-.085-.652-.019-.009.037-.084.088-.105.155-.059.289-.151.52-.114.174.028.302-.015.357-.11.114-.196.045-.419.375-.584.096-.048-.013-.136-.204-.18-.381-.088-.397-.09-.309-.253.064-.118-.017-.268.211-.352.31-.115-.104-.222.03-.334.039-.033.017-.087.052-.124.07-.07.228-.138.222-.201-.008-.073-.143-.144-.242-.209-.01-.008-.004-.017-.015-.025.054-.047.101-.094.184-.136.107-.054.008-.137-.156-.205.013-.007.011-.021.027-.027.299-.13-.097-.261.058-.324.262-.106.117-.198.124-.312.007-.138-.041-.174-.27-.184-.054-.002-.103-.056-.146-.09-.003-.002-.013.001-.017-.002a.2.2 0 0 1 .014-.074c.059-.042.088-.083.071-.124.003-.004.006-.015.009-.018.172-.132.319-.342.577-.245.193.073.333-.022.396-.243.126-.455.048-.984.414-1.355.107-.108-.015-.319-.228-.432-.423-.224-.44-.229-.343-.609.07-.276-.019-.631.232-.818.344-.255-.115-.527.032-.783.045-.078.02-.205.058-.289.077-.163.254-.315.246-.463-.008-.173-.161-.345-.269-.502-.012-.019-.004-.04-.017-.06.059-.107.112-.216.204-.31.12-.122.009-.321-.173-.489.014-.017.01-.049.029-.064.332-.291-.109-.617.063-.758.29-.237.129-.459.137-.729.006-.322-.047-.41-.302-.442-.06-.008-.113-.138-.16-.218-.02-.035-.053-.047-.091-.052.503-.378-.169-.779.047-1.158.026-.048.03-.115.035-.179.044-.144.079-.266.09-.31.122-.217.331-.424.321-.623-.014-.256-.236-.511-.393-.743q-.002-.006-.005-.014c.067-.094.161-.182.264-.28.136-.131.141-.439.206-.668-.041-.012-.081-.034-.123-.033-.258.003-.156-.202-.208-.363l-.025-.095c.324-.406-.192-.839.044-1.033.426-.352.191-.68.2-1.079.009-.405-.087-.538-.33-.605a.79.79 0 0 0 .09-.586c-.157-.581.023-1.252-.378-1.761-.022-.027-.025-.103-.008-.135.083-.159.238-.305.249-.466.009-.158-.195-.314-.047-.518.078-.106.22-.297.198-.329-.237-.34-.062-.678.002-.995a1.3 1.3 0 0 0-.029-.624c.156-.216.184-.606.272-.916-.061-.018-.121-.05-.18-.049-.011 0-.013-.006-.024-.006-.025-.111-.096-.225-.159-.346-.056-.112-.052-.271-.059-.409-.013-.269.193-.411.28-.616.111-.264-.197-.412-.249-.643-.017-.07.038-.2.097-.248.247-.207.271-.526.209-.787-.046-.197-.025-.377-.052-.557-.079-.535.694-.982.107-1.569-.051-.052.034-.28.054-.427.039-.292.175-.631.089-.865-.121-.326-.005-.578.019-.859.024-.291-.262-.651.139-.87.02-.012.005-.197-.039-.26-.173-.25-.266-.499-.156-.822.077-.225.135-.478-.216-.48-.014 0-.031-.14-.041-.216-.008-.068.032-.108.045-.164a.68.68 0 0 1 .438-.039c.281.07.488-.028.578-.25.187-.456.074-.984.611-1.362.156-.109-.022-.319-.333-.428-.623-.217-.647-.222-.503-.603.103-.277-.028-.63.341-.822.506-.261-.168-.525.047-.784.066-.078.03-.205.087-.29.113-.164.372-.319.361-.467-.013-.173-.236-.342-.393-.497-.332-.326-.266-.724.063-.924.488-.297-.159-.615.092-.759.428-.243.193-.461.202-.731.011-.323-.068-.41-.441-.438-.087-.007-.165-.136-.235-.215-.13-.148-.57.083-.523-.243.003-.013.014-.026.017-.039.112-.089.177-.192.145-.339.028-.056.037-.116.071-.168.068-.111.39-.841.419-.929.095-.293-.295-.548-.079-.841-.38-.399-.015-.564.346-.804.202-.134.21-.442.304-.672-.059-.011-.119-.032-.178-.031-.379.007-.231-.199-.306-.359-.251-.534-.455-1.057-.415-1.639.013-.176-.515.032-.469-.248.039-.232.003-.519.371-.641.525-.174.606-.57.487-.87-.23-.578.032-1.253-.553-1.755-.033-.027-.038-.102-.013-.135.124-.16.352-.309.367-.47.013-.158-.285-.311-.067-.517.113-.108.323-.301.292-.332-.35-.337-.094-.678.001-.996.11-.37.061-.672-.257-.959-.056-.051-.038-.241.013-.262.562-.223.271-.457.071-.718-.084-.11-.075-.269-.085-.407-.021-.269.284-.415.41-.622.164-.265-.286-.408-.365-.638-.024-.071.058-.201.144-.25.363-.211.398-.53.308-.791-.069-.196-.038-.376-.076-.556-.115-.533 1.021-.993.159-1.571-.076-.051.051-.28.08-.428.003-.018.012-.038.017-.057.006-.004.005-.009.011-.012.027-.017.049-.113.041-.117-.006-.004-.004-.007-.012-.011.077-.24.172-.487.074-.669-.008-.014.002-.025-.006-.04l.011-.011c.034-.046.068-.093.111-.13.223-.196-.033-.24-.09-.355l-.048-.102c.02-.073.042-.146.051-.222a.6.6 0 0 0-.046-.265.9.9 0 0 0 .166-.548c.035-.019.041-.042.086-.059.031-.012.007-.197-.057-.26-.016-.015-.019-.031-.034-.046-.027-.284-.042-.571-.057-.857-.016-.279-.026-.559-.038-.839.405-.262.157-.44.012-.642a.74.74 0 0 0 .002-.413c.068-.092.15-.177.161-.266.009-.079-.006-.16-.003-.24.004-.003.012-.007.015-.011.133-.123.167-.247.018-.387-.018-.016-.026-.035-.041-.051-.012-.216-.004-.431-.011-.646.423-.421.272-.928.241-1.412-.009-.155-.032-.367-.131-.444-.226-.174-.125-.265-.051-.498.157-.498.547-.949.382-1.545-.103-.37-.034-.79-.096-1.176a2.85 2.85 0 0 1 .406-2.025c.132-.211-.005-.24-.069-.365-.227-.441-.366-.911-.006-1.369.104-.131.062-.131-.012-.252-.33-.528-.435-1.213-.176-1.682.159-.286.124-.623.388-.888.223-.223-.134-.648.19-.926.049-.044.075-.22.053-.232-.289-.161-.308-.441-.289-.723.03-.44-.26-.923.032-1.304.344-.448.122-.867.121-1.289 0-.396-.05-.771.285-1.075-.098-.4.114-.721.238-1.084.118-.349-.026-.778-.043-1.172-.011-.276-.119-.646.015-.809.259-.315.232-.611.209-.94-.053-.776-.026-.994.139-1.338a.7.7 0 0 0 .09-.301c-.004-.282-.044-.562-.044-.844-.001-.319-.125-.626.165-.951.198-.223-.316-.305-.285-.627.065-.64-.238-1.291.208-1.933.11-.158.081-.557-.212-.733a1 1 0 0 1-.121-.102c.452-.55.161-1.157.2-1.739.006-.09.166-.167.198-.266l.008-.024c.053-.01.093.015.096.101.019.586.388.578.791.542.285-.025.523.021.753.254.169.172.277-.438.593-.084.163.184.481.219.689.376.127.097.15.128.254.012.073-.082.127-.344.347-.108.234.251.483.493.748.709.116.095.303.179.437.159.551-.084.96.134 1.317.55.142.167.547.174 1.184.121.056-.004.133-.026.166.002.528.444 1.139.333 1.728.316.299-.008.497.136.745.274.264.146.635.17.893-.133.236-.277.486-.181.689.071.112.137.144.133.248.003.287-.361.662-.348 1.013-.085.197.147.359.236.589.149 1.105-.422 1.441-.415 2.613-.027.203.067.445.071.653.033.279-.051.178-.338.237-.528.048-.156.126-.132.237-.051.094.067.159.391.354.122.228-.314.724-.207.912-.599.13-.271.413-.399.695-.294.52.193.822-.234 1.175-.396.397-.181.816-.522.866-1.087.015-.173.161-.276.353-.235.371.078.579-.215.864-.322.292-.11.663-.044.999-.027.382.021.351-.221.45-.495.123-.336.562-.248.863-.116.177.078.266.326.496.061.121-.14.403-.131.541-.264.171-.166.382-.169.561-.256.219-.106.344-.428.603-.045.313-.004.371-.309.554-.467-.149-.68.708-.367.794-.815.082.073.179.135.245.221.098.128.224.131.228-.027.01-.389.172-.513.549-.615.24-.066.118-.615.448-.786.227-.118.457-.233.675-.366.225-.137.287-.498.62-.483.456.022.242-.397.389-.572a.34.34 0 0 1 .28-.105c.385.071.638-.102.838-.387.172-.243.396-.334.703-.315.392.024.804.07 1.171-.022.338-.085.623-.347.941-.516.133-.071.287-.109.437-.148.419-.111 1.137-.475 1.362-.706.192-.198.359-.427.577-.59.098-.073.301-.045.444-.008.094.025.167.214.251.217.667.028 1.334.029 2.001.038l.926-.923c.078-.078.164-.152.225-.242.144-.214.36-.227.584-.198.26.034.377-.153.549-.28.541-.397.559-1.172 1.114-1.55-.021-.265.024-.558-.079-.789" style="fill:#231f20;fill-rule:nonzero" transform="translate(259.72 500.78)scale(4.16667)"/></svg>